<mxfile host="Electron" agent="Mozilla/5.0 (Macintosh; Intel Mac OS X 10_15_7) AppleWebKit/537.36 (KHTML, like Gecko) draw.io/28.0.6 Chrome/138.0.7204.100 Electron/37.2.3 Safari/537.36" version="28.0.6" pages="3">
  <diagram name="colours" id="NKQYf2zUqb3jOddcUxuZ">
    <mxGraphModel dx="193" dy="413" grid="1" gridSize="8" guides="1" tooltips="1" connect="1" arrows="1" fold="1" page="0" pageScale="1" pageWidth="827" pageHeight="1169" math="0" shadow="0">
      <root>
        <mxCell id="0" />
        <mxCell id="1" parent="0" />
        <mxCell id="0Ie_VCcAXEN6uNBjEeEU-16" value="F0F0F0" style="rounded=0;whiteSpace=wrap;html=1;strokeColor=none;fillColor=#F0F0F0;fontSize=8;verticalAlign=bottom;fontColor=#000000;fontStyle=1;fontFamily=Poppins;" parent="1" vertex="1">
          <mxGeometry width="32" height="32" as="geometry" />
        </mxCell>
        <mxCell id="0Ie_VCcAXEN6uNBjEeEU-17" value="Background colour (light)" style="text;html=1;align=left;verticalAlign=middle;whiteSpace=wrap;rounded=0;fontFamily=Poppins;" parent="1" vertex="1">
          <mxGeometry x="40" y="1" width="184" height="30" as="geometry" />
        </mxCell>
        <mxCell id="0Ie_VCcAXEN6uNBjEeEU-18" value="FAFAFA" style="rounded=0;whiteSpace=wrap;html=1;strokeColor=none;fillColor=#FAFAFA;fontSize=8;verticalAlign=bottom;fontColor=#000000;fontStyle=1;fontFamily=Poppins;" parent="1" vertex="1">
          <mxGeometry y="40" width="32" height="32" as="geometry" />
        </mxCell>
        <mxCell id="0Ie_VCcAXEN6uNBjEeEU-19" value="Tiles colour (light)" style="text;html=1;align=left;verticalAlign=middle;whiteSpace=wrap;rounded=0;fontFamily=Poppins;" parent="1" vertex="1">
          <mxGeometry x="40" y="40" width="184" height="30" as="geometry" />
        </mxCell>
        <mxCell id="0Ie_VCcAXEN6uNBjEeEU-20" value="E1E1E1" style="rounded=0;whiteSpace=wrap;html=1;strokeColor=none;fillColor=#E1E1E1;fontSize=8;verticalAlign=bottom;fontColor=#000000;fontStyle=1;fontFamily=Poppins;" parent="1" vertex="1">
          <mxGeometry y="80" width="32" height="32" as="geometry" />
        </mxCell>
        <mxCell id="0Ie_VCcAXEN6uNBjEeEU-21" value="Utilities colour (light)" style="text;html=1;align=left;verticalAlign=middle;whiteSpace=wrap;rounded=0;fontFamily=Poppins;" parent="1" vertex="1">
          <mxGeometry x="40" y="80" width="184" height="30" as="geometry" />
        </mxCell>
        <mxCell id="FyZFNSqaBo3jpmsIYfh1-1" value="00539F" style="rounded=0;whiteSpace=wrap;html=1;strokeColor=none;fillColor=#00539F;fontSize=8;verticalAlign=bottom;fontColor=#FFFFFF;fontStyle=1;fontFamily=Poppins;" parent="1" vertex="1">
          <mxGeometry y="200" width="32" height="32" as="geometry" />
        </mxCell>
        <mxCell id="FyZFNSqaBo3jpmsIYfh1-2" value="EE1C2E" style="rounded=0;whiteSpace=wrap;html=1;strokeColor=none;fillColor=#EE1C2E;fontSize=8;verticalAlign=bottom;fontColor=#FFFFFF;fontStyle=1;fontFamily=Poppins;" parent="1" vertex="1">
          <mxGeometry y="240" width="32" height="32" as="geometry" />
        </mxCell>
        <mxCell id="FyZFNSqaBo3jpmsIYfh1-3" value="FF9901" style="rounded=0;whiteSpace=wrap;html=1;strokeColor=none;fillColor=#FF9901;fontSize=8;verticalAlign=bottom;fontColor=#FFFFFF;fontStyle=1;fontFamily=Poppins;" parent="1" vertex="1">
          <mxGeometry y="400" width="32" height="32" as="geometry" />
        </mxCell>
        <mxCell id="FyZFNSqaBo3jpmsIYfh1-4" value="018701" style="rounded=0;whiteSpace=wrap;html=1;strokeColor=none;fillColor=#018701;fontSize=8;verticalAlign=bottom;fontColor=#FFFFFF;fontStyle=1;fontFamily=Poppins;" parent="1" vertex="1">
          <mxGeometry y="360" width="32" height="32" as="geometry" />
        </mxCell>
        <mxCell id="FyZFNSqaBo3jpmsIYfh1-5" value="017EB3" style="rounded=0;whiteSpace=wrap;html=1;strokeColor=none;fillColor=#017EB3;fontSize=8;verticalAlign=bottom;fontColor=#FFFFFF;fontStyle=1;fontFamily=Poppins;" parent="1" vertex="1">
          <mxGeometry y="320" width="32" height="32" as="geometry" />
        </mxCell>
        <mxCell id="FyZFNSqaBo3jpmsIYfh1-6" value="CC0122" style="rounded=0;whiteSpace=wrap;html=1;strokeColor=none;fillColor=#CC0122;fontSize=8;verticalAlign=bottom;fontColor=#FFFFFF;fontStyle=1;fontFamily=Poppins;" parent="1" vertex="1">
          <mxGeometry y="440" width="32" height="32" as="geometry" />
        </mxCell>
        <mxCell id="FyZFNSqaBo3jpmsIYfh1-7" value="Primary colour" style="text;html=1;align=left;verticalAlign=middle;whiteSpace=wrap;rounded=0;fontFamily=Poppins;" parent="1" vertex="1">
          <mxGeometry x="40" y="200" width="184" height="30" as="geometry" />
        </mxCell>
        <mxCell id="FyZFNSqaBo3jpmsIYfh1-8" value="Secondary colour" style="text;html=1;align=left;verticalAlign=middle;whiteSpace=wrap;rounded=0;fontFamily=Poppins;" parent="1" vertex="1">
          <mxGeometry x="40" y="240" width="184" height="30" as="geometry" />
        </mxCell>
        <mxCell id="FyZFNSqaBo3jpmsIYfh1-9" value="Timer - over 3/4 left" style="text;html=1;align=left;verticalAlign=middle;whiteSpace=wrap;rounded=0;fontFamily=Poppins;" parent="1" vertex="1">
          <mxGeometry x="40" y="322" width="184" height="30" as="geometry" />
        </mxCell>
        <mxCell id="FyZFNSqaBo3jpmsIYfh1-10" value="Timer - over 1/2 left" style="text;html=1;align=left;verticalAlign=middle;whiteSpace=wrap;rounded=0;fontFamily=Poppins;" parent="1" vertex="1">
          <mxGeometry x="40" y="362" width="184" height="30" as="geometry" />
        </mxCell>
        <mxCell id="FyZFNSqaBo3jpmsIYfh1-11" value="Timer - over 1/4 left" style="text;html=1;align=left;verticalAlign=middle;whiteSpace=wrap;rounded=0;fontFamily=Poppins;" parent="1" vertex="1">
          <mxGeometry x="40" y="400" width="184" height="30" as="geometry" />
        </mxCell>
        <mxCell id="FyZFNSqaBo3jpmsIYfh1-12" value="Timer - over 0 left" style="text;html=1;align=left;verticalAlign=middle;whiteSpace=wrap;rounded=0;fontFamily=Poppins;" parent="1" vertex="1">
          <mxGeometry x="40" y="440" width="184" height="30" as="geometry" />
        </mxCell>
        <mxCell id="FyZFNSqaBo3jpmsIYfh1-13" value="&lt;font style=&quot;color: rgb(255, 255, 255);&quot;&gt;252525&lt;/font&gt;" style="rounded=0;whiteSpace=wrap;html=1;strokeColor=none;fillColor=#252525;fontSize=8;verticalAlign=bottom;fontColor=#000000;fontStyle=1;fontFamily=Poppins;" parent="1" vertex="1">
          <mxGeometry x="224" width="32" height="32" as="geometry" />
        </mxCell>
        <mxCell id="FyZFNSqaBo3jpmsIYfh1-14" value="Background colour (dark)" style="text;html=1;align=left;verticalAlign=middle;whiteSpace=wrap;rounded=0;fontFamily=Poppins;" parent="1" vertex="1">
          <mxGeometry x="264" y="1" width="184" height="30" as="geometry" />
        </mxCell>
        <mxCell id="FyZFNSqaBo3jpmsIYfh1-15" value="323232" style="rounded=0;whiteSpace=wrap;html=1;strokeColor=none;fillColor=#323232;fontSize=8;verticalAlign=bottom;fontColor=#FFFFFF;fontStyle=1;fontFamily=Poppins;" parent="1" vertex="1">
          <mxGeometry x="224" y="40" width="32" height="32" as="geometry" />
        </mxCell>
        <mxCell id="FyZFNSqaBo3jpmsIYfh1-16" value="Tiles colour (dark)" style="text;html=1;align=left;verticalAlign=middle;whiteSpace=wrap;rounded=0;fontFamily=Poppins;" parent="1" vertex="1">
          <mxGeometry x="264" y="40" width="184" height="30" as="geometry" />
        </mxCell>
        <mxCell id="FyZFNSqaBo3jpmsIYfh1-17" value="191919" style="rounded=0;whiteSpace=wrap;html=1;strokeColor=none;fillColor=#191919;fontSize=8;verticalAlign=bottom;fontColor=#FFFFFF;fontStyle=1;fontFamily=Poppins;" parent="1" vertex="1">
          <mxGeometry x="224" y="80" width="32" height="32" as="geometry" />
        </mxCell>
        <mxCell id="FyZFNSqaBo3jpmsIYfh1-18" value="Utilities colour (dark)" style="text;html=1;align=left;verticalAlign=middle;whiteSpace=wrap;rounded=0;fontFamily=Poppins;" parent="1" vertex="1">
          <mxGeometry x="264" y="80" width="184" height="30" as="geometry" />
        </mxCell>
        <mxCell id="ZjVxmo4j0z-Q_x95aZ6y-1" value="FCD700" style="rounded=0;whiteSpace=wrap;html=1;strokeColor=none;fillColor=#FCD700;fontSize=8;verticalAlign=bottom;fontColor=#000000;fontStyle=1;fontFamily=Poppins;" parent="1" vertex="1">
          <mxGeometry y="280" width="32" height="32" as="geometry" />
        </mxCell>
        <mxCell id="ZjVxmo4j0z-Q_x95aZ6y-2" value="Tertiary colour" style="text;html=1;align=left;verticalAlign=middle;whiteSpace=wrap;rounded=0;fontFamily=Poppins;" parent="1" vertex="1">
          <mxGeometry x="40" y="280" width="184" height="30" as="geometry" />
        </mxCell>
        <mxCell id="k61IGwkpz7jHoEw6oXCz-1" value="1E2022" style="rounded=0;whiteSpace=wrap;html=1;strokeColor=none;fillColor=#1E2022;fontSize=8;verticalAlign=bottom;fontColor=#FFFFFF;fontStyle=1;fontFamily=Poppins;" parent="1" vertex="1">
          <mxGeometry y="120" width="32" height="32" as="geometry" />
        </mxCell>
        <mxCell id="k61IGwkpz7jHoEw6oXCz-2" value="Text colour (dark)" style="text;html=1;align=left;verticalAlign=middle;whiteSpace=wrap;rounded=0;fontFamily=Poppins;" parent="1" vertex="1">
          <mxGeometry x="40" y="121" width="184" height="30" as="geometry" />
        </mxCell>
        <mxCell id="k61IGwkpz7jHoEw6oXCz-3" value="E9E5EA" style="rounded=0;whiteSpace=wrap;html=1;strokeColor=none;fillColor=#E9E5EA;fontSize=8;verticalAlign=bottom;fontColor=#000000;fontStyle=1;fontFamily=Poppins;" parent="1" vertex="1">
          <mxGeometry x="224" y="120" width="32" height="32" as="geometry" />
        </mxCell>
        <mxCell id="k61IGwkpz7jHoEw6oXCz-4" value="Text colour (light)" style="text;html=1;align=left;verticalAlign=middle;whiteSpace=wrap;rounded=0;fontFamily=Poppins;" parent="1" vertex="1">
          <mxGeometry x="264" y="121" width="184" height="30" as="geometry" />
        </mxCell>
        <mxCell id="EBwjK4j-vP5KiNi_OTNO-1" value="597491" style="rounded=0;whiteSpace=wrap;html=1;strokeColor=none;fillColor=#597491;fontSize=8;verticalAlign=bottom;fontColor=#FFFFFF;fontStyle=1;fontFamily=Poppins;" parent="1" vertex="1">
          <mxGeometry x="224" y="200" width="32" height="32" as="geometry" />
        </mxCell>
        <mxCell id="EBwjK4j-vP5KiNi_OTNO-3" value="Primary colour (pressed)" style="text;html=1;align=left;verticalAlign=middle;whiteSpace=wrap;rounded=0;fontFamily=Poppins;" parent="1" vertex="1">
          <mxGeometry x="264" y="200" width="184" height="30" as="geometry" />
        </mxCell>
        <mxCell id="EBwjK4j-vP5KiNi_OTNO-7" value="00539F" style="rounded=0;whiteSpace=wrap;html=1;strokeColor=none;fillColor=#00539F;fontSize=8;verticalAlign=bottom;fontColor=#FFFFFF;fontStyle=1;fontFamily=Poppins;opacity=30;" parent="1" vertex="1">
          <mxGeometry x="448" y="200" width="32" height="32" as="geometry" />
        </mxCell>
        <mxCell id="EBwjK4j-vP5KiNi_OTNO-9" value="Primary colour (30% opacity)" style="text;html=1;align=left;verticalAlign=middle;whiteSpace=wrap;rounded=0;fontFamily=Poppins;" parent="1" vertex="1">
          <mxGeometry x="488" y="200" width="184" height="30" as="geometry" />
        </mxCell>
        <mxCell id="Uw2cEb0zUf-uKZRLerOn-1" value="FFFFFF" style="rounded=0;whiteSpace=wrap;html=1;strokeColor=none;fillColor=#FFFFFF;fontSize=8;verticalAlign=bottom;fontColor=#000000;fontStyle=1;fontFamily=Poppins;" parent="1" vertex="1">
          <mxGeometry y="160" width="32" height="32" as="geometry" />
        </mxCell>
        <mxCell id="Uw2cEb0zUf-uKZRLerOn-2" value="Button text colour" style="text;html=1;align=left;verticalAlign=middle;whiteSpace=wrap;rounded=0;fontFamily=Poppins;" parent="1" vertex="1">
          <mxGeometry x="40" y="160" width="184" height="30" as="geometry" />
        </mxCell>
        <mxCell id="ucoqsbwAOPD1YwnoGIiM-1" value="B2B2B2" style="rounded=0;whiteSpace=wrap;html=1;strokeColor=none;fillColor=#B2B2B2;fontSize=8;verticalAlign=bottom;fontColor=#000000;fontStyle=1;fontFamily=Poppins;" parent="1" vertex="1">
          <mxGeometry x="224" y="160" width="32" height="32" as="geometry" />
        </mxCell>
        <mxCell id="ucoqsbwAOPD1YwnoGIiM-2" value="Button text colour (pressed)" style="text;html=1;align=left;verticalAlign=middle;whiteSpace=wrap;rounded=0;fontFamily=Poppins;" parent="1" vertex="1">
          <mxGeometry x="264" y="160" width="184" height="30" as="geometry" />
        </mxCell>
        <mxCell id="3icZ4CD93HUDtCkN1w88-1" value="FFB74D" style="rounded=0;whiteSpace=wrap;html=1;strokeColor=none;fillColor=#FFB74D;fontSize=8;verticalAlign=bottom;fontColor=#FFFFFF;fontStyle=1;fontFamily=Poppins;" parent="1" vertex="1">
          <mxGeometry y="560" width="32" height="32" as="geometry" />
        </mxCell>
        <mxCell id="3icZ4CD93HUDtCkN1w88-2" value="4DAB4D" style="rounded=0;whiteSpace=wrap;html=1;strokeColor=none;fillColor=#4DAB4D;fontSize=8;verticalAlign=bottom;fontColor=#FFFFFF;fontStyle=1;fontFamily=Poppins;" parent="1" vertex="1">
          <mxGeometry y="520" width="32" height="32" as="geometry" />
        </mxCell>
        <mxCell id="3icZ4CD93HUDtCkN1w88-3" value="4DA4C9" style="rounded=0;whiteSpace=wrap;html=1;strokeColor=none;fillColor=#4DA4C9;fontSize=8;verticalAlign=bottom;fontColor=#FFFFFF;fontStyle=1;fontFamily=Poppins;" parent="1" vertex="1">
          <mxGeometry y="480" width="32" height="32" as="geometry" />
        </mxCell>
        <mxCell id="3icZ4CD93HUDtCkN1w88-4" value="DB4D64" style="rounded=0;whiteSpace=wrap;html=1;strokeColor=none;fillColor=#DB4D64;fontSize=8;verticalAlign=bottom;fontColor=#FFFFFF;fontStyle=1;fontFamily=Poppins;" parent="1" vertex="1">
          <mxGeometry y="600" width="32" height="32" as="geometry" />
        </mxCell>
        <mxCell id="3icZ4CD93HUDtCkN1w88-5" value="Total score - Fade in" style="text;html=1;align=left;verticalAlign=middle;whiteSpace=wrap;rounded=0;fontFamily=Poppins;" parent="1" vertex="1">
          <mxGeometry x="40" y="482" width="184" height="30" as="geometry" />
        </mxCell>
        <mxCell id="3icZ4CD93HUDtCkN1w88-6" value="Correct answers - Fade in" style="text;html=1;align=left;verticalAlign=middle;whiteSpace=wrap;rounded=0;fontFamily=Poppins;" parent="1" vertex="1">
          <mxGeometry x="40" y="522" width="184" height="30" as="geometry" />
        </mxCell>
        <mxCell id="3icZ4CD93HUDtCkN1w88-7" value="Missed answers - Fade in" style="text;html=1;align=left;verticalAlign=middle;whiteSpace=wrap;rounded=0;fontFamily=Poppins;" parent="1" vertex="1">
          <mxGeometry x="40" y="560" width="184" height="30" as="geometry" />
        </mxCell>
        <mxCell id="3icZ4CD93HUDtCkN1w88-8" value="Wrong answers - Fade in" style="text;html=1;align=left;verticalAlign=middle;whiteSpace=wrap;rounded=0;fontFamily=Poppins;" parent="1" vertex="1">
          <mxGeometry x="40" y="600" width="184" height="30" as="geometry" />
        </mxCell>
        <mxCell id="3icZ4CD93HUDtCkN1w88-9" value="B26B00" style="rounded=0;whiteSpace=wrap;html=1;strokeColor=none;fillColor=#B26B00;fontSize=8;verticalAlign=bottom;fontColor=#FFFFFF;fontStyle=1;fontFamily=Poppins;" parent="1" vertex="1">
          <mxGeometry x="224" y="560" width="32" height="32" as="geometry" />
        </mxCell>
        <mxCell id="3icZ4CD93HUDtCkN1w88-10" value="005E00" style="rounded=0;whiteSpace=wrap;html=1;strokeColor=none;fillColor=#005E00;fontSize=8;verticalAlign=bottom;fontColor=#FFFFFF;fontStyle=1;fontFamily=Poppins;" parent="1" vertex="1">
          <mxGeometry x="224" y="520" width="32" height="32" as="geometry" />
        </mxCell>
        <mxCell id="3icZ4CD93HUDtCkN1w88-11" value="00587D" style="rounded=0;whiteSpace=wrap;html=1;strokeColor=none;fillColor=#00587D;fontSize=8;verticalAlign=bottom;fontColor=#FFFFFF;fontStyle=1;fontFamily=Poppins;" parent="1" vertex="1">
          <mxGeometry x="224" y="480" width="32" height="32" as="geometry" />
        </mxCell>
        <mxCell id="3icZ4CD93HUDtCkN1w88-12" value="CC0122" style="rounded=0;whiteSpace=wrap;html=1;strokeColor=none;fillColor=#8E0017;fontSize=8;verticalAlign=bottom;fontColor=#FFFFFF;fontStyle=1;fontFamily=Poppins;" parent="1" vertex="1">
          <mxGeometry x="224" y="600" width="32" height="32" as="geometry" />
        </mxCell>
        <mxCell id="3icZ4CD93HUDtCkN1w88-13" value="Total score - Fade out" style="text;html=1;align=left;verticalAlign=middle;whiteSpace=wrap;rounded=0;fontFamily=Poppins;" parent="1" vertex="1">
          <mxGeometry x="264" y="482" width="184" height="30" as="geometry" />
        </mxCell>
        <mxCell id="3icZ4CD93HUDtCkN1w88-14" value="Correct answers - Fade out" style="text;html=1;align=left;verticalAlign=middle;whiteSpace=wrap;rounded=0;fontFamily=Poppins;" parent="1" vertex="1">
          <mxGeometry x="264" y="522" width="184" height="30" as="geometry" />
        </mxCell>
        <mxCell id="3icZ4CD93HUDtCkN1w88-15" value="Missed answers - Fade out" style="text;html=1;align=left;verticalAlign=middle;whiteSpace=wrap;rounded=0;fontFamily=Poppins;" parent="1" vertex="1">
          <mxGeometry x="264" y="560" width="184" height="30" as="geometry" />
        </mxCell>
        <mxCell id="3icZ4CD93HUDtCkN1w88-16" value="Wrong answers - Fade out" style="text;html=1;align=left;verticalAlign=middle;whiteSpace=wrap;rounded=0;fontFamily=Poppins;" parent="1" vertex="1">
          <mxGeometry x="264" y="600" width="184" height="30" as="geometry" />
        </mxCell>
      </root>
    </mxGraphModel>
  </diagram>
  <diagram id="Zm3op1JYc7KDVKtygB3r" name="fonts">
    <mxGraphModel dx="1434" dy="836" grid="1" gridSize="10" guides="1" tooltips="1" connect="1" arrows="1" fold="1" page="0" pageScale="1" pageWidth="827" pageHeight="1169" math="0" shadow="0">
      <root>
        <mxCell id="0" />
        <mxCell id="1" parent="0" />
        <mxCell id="Sl6ABKIE0nRdkYQWG1FV-2" value="&lt;font style=&quot;font-size: 24px;&quot; data-font-src=&quot;https://fonts.googleapis.com/css?family=Aper%C3%A7u&quot;&gt;TESCO Modern Cond. - Roboto Condensed&lt;/font&gt;" style="rounded=0;whiteSpace=wrap;html=1;fontFamily=Roboto Condensed;fontSource=https%3A%2F%2Ffonts.googleapis.com%2Fcss%3Ffamily%3DRoboto%2BCondensed;fontStyle=0" parent="1" vertex="1">
          <mxGeometry x="160" y="410" width="440" height="40" as="geometry" />
        </mxCell>
        <mxCell id="Sl6ABKIE0nRdkYQWG1FV-3" value="&lt;font style=&quot;font-size: 24px;&quot; data-font-src=&quot;https://fonts.googleapis.com/css?family=Montserrat&quot;&gt;TESCO Modern - Poppins&lt;/font&gt;" style="rounded=0;whiteSpace=wrap;html=1;fontFamily=Poppins;fontSource=https%3A%2F%2Ffonts.googleapis.com%2Fcss%3Ffamily%3DPoppins;fontStyle=0" parent="1" vertex="1">
          <mxGeometry x="160" y="360" width="440" height="40" as="geometry" />
        </mxCell>
        <mxCell id="0CraRUiabTECMVdV1dD--48" value="&lt;font style=&quot;font-size: 24px;&quot; data-font-src=&quot;https://fonts.googleapis.com/css?family=Aper%C3%A7u&quot;&gt;TESCO Slab - Kameron&lt;/font&gt;" style="rounded=0;whiteSpace=wrap;html=1;fontFamily=Kameron;fontSource=https%3A%2F%2Ffonts.googleapis.com%2Fcss%3Ffamily%3DKameron;fontStyle=0" parent="1" vertex="1">
          <mxGeometry x="160" y="460" width="440" height="40" as="geometry" />
        </mxCell>
        <mxCell id="Lk7UUhVGw8oD11lxRDYI-4" value="&lt;font style=&quot;font-size: 24px;&quot; data-font-src=&quot;https://fonts.googleapis.com/css?family=Aper%C3%A7u&quot;&gt;TESCO Serif - Cardo&lt;/font&gt;" style="rounded=0;whiteSpace=wrap;html=1;fontFamily=Cardo;fontSource=https%3A%2F%2Ffonts.googleapis.com%2Fcss%3Ffamily%3DCardo;fontStyle=0" parent="1" vertex="1">
          <mxGeometry x="160" y="510" width="440" height="40" as="geometry" />
        </mxCell>
        <mxCell id="BDCksJkkTRNvaY0kU4AM-1" value="&lt;font data-font-src=&quot;https://fonts.googleapis.com/css?family=Aper%C3%A7u&quot; style=&quot;font-size: 24px;&quot;&gt;TESCO Modern Cond. - Roboto Condensed&lt;/font&gt;" style="rounded=0;whiteSpace=wrap;html=1;fontFamily=Roboto Condensed;fontSource=https%3A%2F%2Ffonts.googleapis.com%2Fcss%3Ffamily%3DRoboto%2BCondensed;fontStyle=1" parent="1" vertex="1">
          <mxGeometry x="610" y="410" width="440" height="40" as="geometry" />
        </mxCell>
        <mxCell id="BDCksJkkTRNvaY0kU4AM-2" value="&lt;font data-font-src=&quot;https://fonts.googleapis.com/css?family=Montserrat&quot; style=&quot;font-size: 24px;&quot;&gt;TESCO Modern - Poppins&lt;/font&gt;" style="rounded=0;whiteSpace=wrap;html=1;fontFamily=Poppins;fontSource=https%3A%2F%2Ffonts.googleapis.com%2Fcss%3Ffamily%3DPoppins;fontStyle=1" parent="1" vertex="1">
          <mxGeometry x="610" y="360" width="440" height="40" as="geometry" />
        </mxCell>
        <mxCell id="BDCksJkkTRNvaY0kU4AM-3" value="&lt;font data-font-src=&quot;https://fonts.googleapis.com/css?family=Aper%C3%A7u&quot; style=&quot;font-size: 24px;&quot;&gt;TESCO Slab - Kameron&lt;/font&gt;" style="rounded=0;whiteSpace=wrap;html=1;fontFamily=Kameron;fontSource=https%3A%2F%2Ffonts.googleapis.com%2Fcss%3Ffamily%3DKameron;fontStyle=1" parent="1" vertex="1">
          <mxGeometry x="610" y="460" width="440" height="40" as="geometry" />
        </mxCell>
        <mxCell id="BDCksJkkTRNvaY0kU4AM-4" value="&lt;font data-font-src=&quot;https://fonts.googleapis.com/css?family=Aper%C3%A7u&quot; style=&quot;font-size: 24px;&quot;&gt;TESCO Serif - Cardo&lt;/font&gt;" style="rounded=0;whiteSpace=wrap;html=1;fontFamily=Cardo;fontSource=https%3A%2F%2Ffonts.googleapis.com%2Fcss%3Ffamily%3DCardo;fontStyle=1" parent="1" vertex="1">
          <mxGeometry x="610" y="510" width="440" height="40" as="geometry" />
        </mxCell>
        <mxCell id="BDCksJkkTRNvaY0kU4AM-5" value="&lt;font data-font-src=&quot;https://fonts.googleapis.com/css?family=Aper%C3%A7u&quot; style=&quot;font-size: 24px;&quot;&gt;TESCO Modern Cond. - Roboto Condensed&lt;/font&gt;" style="rounded=0;whiteSpace=wrap;html=1;fontFamily=Roboto Condensed;fontSource=https%3A%2F%2Ffonts.googleapis.com%2Fcss%3Ffamily%3DRoboto%2BCondensed;fontStyle=2" parent="1" vertex="1">
          <mxGeometry x="1060" y="410" width="440" height="40" as="geometry" />
        </mxCell>
        <mxCell id="BDCksJkkTRNvaY0kU4AM-6" value="&lt;font data-font-src=&quot;https://fonts.googleapis.com/css?family=Montserrat&quot; style=&quot;font-size: 24px;&quot;&gt;TESCO Modern - Poppins&lt;/font&gt;" style="rounded=0;whiteSpace=wrap;html=1;fontFamily=Poppins;fontSource=https%3A%2F%2Ffonts.googleapis.com%2Fcss%3Ffamily%3DPoppins;fontStyle=2" parent="1" vertex="1">
          <mxGeometry x="1060" y="360" width="440" height="40" as="geometry" />
        </mxCell>
        <mxCell id="BDCksJkkTRNvaY0kU4AM-7" value="&lt;font data-font-src=&quot;https://fonts.googleapis.com/css?family=Aper%C3%A7u&quot; style=&quot;font-size: 24px;&quot;&gt;TESCO Slab - Kameron&lt;/font&gt;" style="rounded=0;whiteSpace=wrap;html=1;fontFamily=Kameron;fontSource=https%3A%2F%2Ffonts.googleapis.com%2Fcss%3Ffamily%3DKameron;fontStyle=2" parent="1" vertex="1">
          <mxGeometry x="1060" y="460" width="440" height="40" as="geometry" />
        </mxCell>
        <mxCell id="BDCksJkkTRNvaY0kU4AM-8" value="&lt;font data-font-src=&quot;https://fonts.googleapis.com/css?family=Aper%C3%A7u&quot; style=&quot;font-size: 24px;&quot;&gt;TESCO Serif - Cardo&lt;/font&gt;" style="rounded=0;whiteSpace=wrap;html=1;fontFamily=Cardo;fontSource=https%3A%2F%2Ffonts.googleapis.com%2Fcss%3Ffamily%3DCardo;fontStyle=2" parent="1" vertex="1">
          <mxGeometry x="1060" y="510" width="440" height="40" as="geometry" />
        </mxCell>
        <mxCell id="BDCksJkkTRNvaY0kU4AM-9" value="&lt;font style=&quot;font-size: 24px;&quot; data-font-src=&quot;https://fonts.googleapis.com/css?family=Aper%C3%A7u&quot;&gt;TESCO Modern Cond. - Roboto Condensed&lt;/font&gt;" style="rounded=0;whiteSpace=wrap;html=1;fontFamily=Roboto Condensed;fontSource=https%3A%2F%2Ffonts.googleapis.com%2Fcss%3Ffamily%3DRoboto%2BCondensed;fontStyle=3" parent="1" vertex="1">
          <mxGeometry x="1510" y="410" width="440" height="40" as="geometry" />
        </mxCell>
        <mxCell id="BDCksJkkTRNvaY0kU4AM-10" value="&lt;font style=&quot;font-size: 24px;&quot; data-font-src=&quot;https://fonts.googleapis.com/css?family=Montserrat&quot;&gt;TESCO Modern - Poppins&lt;/font&gt;" style="rounded=0;whiteSpace=wrap;html=1;fontFamily=Poppins;fontSource=https%3A%2F%2Ffonts.googleapis.com%2Fcss%3Ffamily%3DPoppins;fontStyle=3" parent="1" vertex="1">
          <mxGeometry x="1510" y="360" width="440" height="40" as="geometry" />
        </mxCell>
        <mxCell id="BDCksJkkTRNvaY0kU4AM-11" value="&lt;font style=&quot;font-size: 24px;&quot; data-font-src=&quot;https://fonts.googleapis.com/css?family=Aper%C3%A7u&quot;&gt;TESCO Slab - Kameron&lt;/font&gt;" style="rounded=0;whiteSpace=wrap;html=1;fontFamily=Kameron;fontSource=https%3A%2F%2Ffonts.googleapis.com%2Fcss%3Ffamily%3DKameron;fontStyle=3" parent="1" vertex="1">
          <mxGeometry x="1510" y="460" width="440" height="40" as="geometry" />
        </mxCell>
        <mxCell id="BDCksJkkTRNvaY0kU4AM-12" value="&lt;font style=&quot;font-size: 24px;&quot; data-font-src=&quot;https://fonts.googleapis.com/css?family=Aper%C3%A7u&quot;&gt;TESCO Serif - Cardo&lt;/font&gt;" style="rounded=0;whiteSpace=wrap;html=1;fontFamily=Cardo;fontSource=https%3A%2F%2Ffonts.googleapis.com%2Fcss%3Ffamily%3DCardo;fontStyle=3" parent="1" vertex="1">
          <mxGeometry x="1510" y="510" width="440" height="40" as="geometry" />
        </mxCell>
      </root>
    </mxGraphModel>
  </diagram>
  <diagram id="tafLITBsCRFsTj62nTGu" name="buttons">
    <mxGraphModel dx="608" dy="1305" grid="1" gridSize="8" guides="1" tooltips="1" connect="1" arrows="1" fold="1" page="0" pageScale="1" pageWidth="827" pageHeight="1169" math="0" shadow="0">
      <root>
        <mxCell id="0" />
        <mxCell id="1" parent="0" />
        <mxCell id="4Mfdoc5GSgayDtE8U_xP-1" value="←" style="rounded=0;whiteSpace=wrap;html=1;fontFamily=Inter;fontSize=20;strokeColor=none;fillColor=#F0F0F0;fontColor=#1E2022;fontSource=https%3A%2F%2Ffonts.googleapis.com%2Fcss%3Ffamily%3DInter;fontStyle=1" parent="1" vertex="1">
          <mxGeometry x="120" y="80" width="40" height="32" as="geometry" />
        </mxCell>
        <mxCell id="4Mfdoc5GSgayDtE8U_xP-2" value="←" style="rounded=0;whiteSpace=wrap;html=1;fontFamily=Inter;fontSize=20;strokeColor=none;fillColor=#A71420;fontColor=#FFFFFF;fontSource=https%3A%2F%2Ffonts.googleapis.com%2Fcss%3Ffamily%3DInter;fontStyle=1" parent="1" vertex="1">
          <mxGeometry x="120" y="160" width="40" height="32" as="geometry" />
        </mxCell>
        <mxCell id="4Mfdoc5GSgayDtE8U_xP-3" value="←" style="rounded=0;whiteSpace=wrap;html=1;fontFamily=Inter;fontSize=20;strokeColor=none;fillColor=#252525;fontColor=#E9E5EA;fontSource=https%3A%2F%2Ffonts.googleapis.com%2Fcss%3Ffamily%3DInter;fontStyle=1" parent="1" vertex="1">
          <mxGeometry x="120" y="120" width="40" height="32" as="geometry" />
        </mxCell>
        <mxCell id="WgswzNdgNDpA2zYHxi47-1" value="←" style="rounded=0;whiteSpace=wrap;html=1;fontFamily=Inter;fontSize=20;strokeColor=none;fillColor=#00539F;fontColor=#FFFFFF;fontSource=https%3A%2F%2Ffonts.googleapis.com%2Fcss%3Ffamily%3DInter;fontStyle=1" parent="1" vertex="1">
          <mxGeometry x="120" y="40" width="40" height="32" as="geometry" />
        </mxCell>
        <mxCell id="WgswzNdgNDpA2zYHxi47-2" value="Button Enabled" style="rounded=1;whiteSpace=wrap;html=1;fontFamily=Poppins;fontSize=16;fillColor=#00539F;fontColor=#FFFFFF;shadow=1;arcSize=50;strokeColor=none;fontSource=https%3A%2F%2Ffonts.googleapis.com%2Fcss%3Ffamily%3DPoppins;" parent="1" vertex="1">
          <mxGeometry x="120" y="200" width="328" height="40" as="geometry" />
        </mxCell>
        <mxCell id="WgswzNdgNDpA2zYHxi47-3" value="Button Pressed" style="rounded=1;whiteSpace=wrap;html=1;fontFamily=Poppins;fontSize=16;fillColor=#003A6F;fontColor=#FFFFFF;shadow=1;arcSize=50;strokeColor=none;fontSource=https%3A%2F%2Ffonts.googleapis.com%2Fcss%3Ffamily%3DPoppins;" parent="1" vertex="1">
          <mxGeometry x="120" y="250" width="328" height="40" as="geometry" />
        </mxCell>
        <mxCell id="WgswzNdgNDpA2zYHxi47-4" value="Button Disabled" style="rounded=1;whiteSpace=wrap;html=1;fontFamily=Poppins;fontSize=16;fillColor=#597491;fontColor=#FFFFFF;shadow=0;arcSize=50;strokeColor=none;fontSource=https%3A%2F%2Ffonts.googleapis.com%2Fcss%3Ffamily%3DPoppins;" parent="1" vertex="1">
          <mxGeometry x="120" y="300" width="328" height="40" as="geometry" />
        </mxCell>
        <mxCell id="2VHBlUvyJRlqlRp6QgVQ-1" value="Button Enabled" style="rounded=0;whiteSpace=wrap;html=1;fontSize=32;fontFamily=Poppins;fontSource=https%3A%2F%2Ffonts.googleapis.com%2Fcss%3Ffamily%3DPoppins;fontStyle=1;fillColor=#00539F;fontColor=#FFFFFF;strokeColor=none;" parent="1" vertex="1">
          <mxGeometry x="128" y="352" width="328" height="48" as="geometry" />
        </mxCell>
        <mxCell id="2VHBlUvyJRlqlRp6QgVQ-3" value="Button Pressed" style="rounded=0;whiteSpace=wrap;html=1;fontSize=32;fontFamily=Poppins;fontSource=https%3A%2F%2Ffonts.googleapis.com%2Fcss%3Ffamily%3DPoppins;fontStyle=1;fillColor=#00539F;fontColor=#EE1C2E;strokeColor=none;" parent="1" vertex="1">
          <mxGeometry x="128" y="408" width="328" height="48" as="geometry" />
        </mxCell>
        <mxCell id="2VHBlUvyJRlqlRp6QgVQ-4" value="Enabled" style="rounded=0;whiteSpace=wrap;html=1;fontSize=12;fontFamily=Poppins;fillColor=#00539F;fontColor=#FFFFFF;fontSource=https%3A%2F%2Ffonts.googleapis.com%2Fcss%3Ffamily%3DPoppins;strokeColor=none;shadow=1;" parent="1" vertex="1">
          <mxGeometry x="128" y="480" width="104" height="32" as="geometry" />
        </mxCell>
        <mxCell id="2VHBlUvyJRlqlRp6QgVQ-5" value="Disabled" style="rounded=0;whiteSpace=wrap;html=1;fontFamily=Poppins;fillColor=#597491;fontColor=#FFFFFF;fontSource=https%3A%2F%2Ffonts.googleapis.com%2Fcss%3Ffamily%3DPoppins;strokeColor=none;shadow=0;" parent="1" vertex="1">
          <mxGeometry x="352" y="480" width="104" height="32" as="geometry" />
        </mxCell>
        <mxCell id="2VHBlUvyJRlqlRp6QgVQ-8" value="Pressed" style="rounded=1;whiteSpace=wrap;html=1;fontFamily=Poppins;fontSize=12;fillColor=#003A6F;fontColor=#FFFFFF;shadow=1;arcSize=0;strokeColor=none;fontSource=https%3A%2F%2Ffonts.googleapis.com%2Fcss%3Ffamily%3DPoppins;" parent="1" vertex="1">
          <mxGeometry x="240" y="480" width="104" height="32" as="geometry" />
        </mxCell>
        <mxCell id="2VHBlUvyJRlqlRp6QgVQ-9" value="" style="rounded=1;whiteSpace=wrap;html=1;fillColor=#FAFAFA;strokeColor=none;shadow=1;" parent="1" vertex="1">
          <mxGeometry x="128" y="544" width="328" height="128" as="geometry" />
        </mxCell>
        <mxCell id="2VHBlUvyJRlqlRp6QgVQ-10" value="&lt;font&gt;Level 2&lt;/font&gt;" style="rounded=0;whiteSpace=wrap;html=1;fontFamily=Kameron;fontSize=24;fillColor=none;strokeColor=none;fontSource=https%3A%2F%2Ffonts.googleapis.com%2Fcss%3Ffamily%3DKameron;fontStyle=1" parent="1" vertex="1">
          <mxGeometry x="136" y="552" width="312" height="24" as="geometry" />
        </mxCell>
        <mxCell id="2VHBlUvyJRlqlRp6QgVQ-11" value="Heyyy!&lt;div&gt;On what aisle can I find some roast beef joints?&lt;/div&gt;" style="rounded=0;whiteSpace=wrap;html=1;fontFamily=Poppins;fontSize=16;verticalAlign=middle;fontSource=https%3A%2F%2Ffonts.googleapis.com%2Fcss%3Ffamily%3DPoppins;fontColor=default;strokeColor=none;fillColor=none;" parent="1" vertex="1">
          <mxGeometry x="136" y="584" width="312" height="56" as="geometry" />
        </mxCell>
        <mxCell id="2VHBlUvyJRlqlRp6QgVQ-12" value="Frozen" style="rounded=0;whiteSpace=wrap;html=1;fontFamily=Roboto Condensed;fontSize=12;verticalAlign=middle;fillColor=none;strokeColor=none;fontSource=https%3A%2F%2Ffonts.googleapis.com%2Fcss%3Ffamily%3DRoboto%2BCondensed;" parent="1" vertex="1">
          <mxGeometry x="136" y="648" width="312" height="16" as="geometry" />
        </mxCell>
        <mxCell id="2VHBlUvyJRlqlRp6QgVQ-13" value="" style="rounded=1;whiteSpace=wrap;html=1;fillColor=#323232;strokeColor=none;shadow=1;fontColor=#E9E5EA;" parent="1" vertex="1">
          <mxGeometry x="464" y="544" width="328" height="128" as="geometry" />
        </mxCell>
        <mxCell id="2VHBlUvyJRlqlRp6QgVQ-14" value="&lt;font&gt;Level 2&lt;/font&gt;" style="rounded=0;whiteSpace=wrap;html=1;fontFamily=Kameron;fontSize=24;fillColor=none;strokeColor=none;fontSource=https%3A%2F%2Ffonts.googleapis.com%2Fcss%3Ffamily%3DKameron;fontStyle=1;fontColor=#E9E5EA;" parent="1" vertex="1">
          <mxGeometry x="472" y="552" width="312" height="24" as="geometry" />
        </mxCell>
        <mxCell id="2VHBlUvyJRlqlRp6QgVQ-15" value="Heyyy!&lt;div&gt;On what aisle can I find some roast beef joints?&lt;/div&gt;" style="rounded=0;whiteSpace=wrap;html=1;fontFamily=Poppins;fontSize=16;verticalAlign=middle;fontSource=https%3A%2F%2Ffonts.googleapis.com%2Fcss%3Ffamily%3DPoppins;fontColor=#E9E5EA;strokeColor=none;fillColor=none;" parent="1" vertex="1">
          <mxGeometry x="472" y="584" width="312" height="56" as="geometry" />
        </mxCell>
        <mxCell id="2VHBlUvyJRlqlRp6QgVQ-16" value="Frozen" style="rounded=0;whiteSpace=wrap;html=1;fontFamily=Roboto Condensed;fontSize=12;verticalAlign=middle;fillColor=none;strokeColor=none;fontSource=https%3A%2F%2Ffonts.googleapis.com%2Fcss%3Ffamily%3DRoboto%2BCondensed;fontColor=#E9E5EA;" parent="1" vertex="1">
          <mxGeometry x="472" y="648" width="312" height="16" as="geometry" />
        </mxCell>
        <mxCell id="2VHBlUvyJRlqlRp6QgVQ-17" value="5|" style="rounded=0;whiteSpace=wrap;html=1;align=left;fontSize=16;fillColor=#E1E1E1;fontColor=#1E2022;fontFamily=Poppins;fontSource=https%3A%2F%2Ffonts.googleapis.com%2Fcss%3Ffamily%3DPoppins;strokeColor=none;shadow=0;" parent="1" vertex="1">
          <mxGeometry x="128" y="720" width="328" height="32" as="geometry" />
        </mxCell>
        <mxCell id="2VHBlUvyJRlqlRp6QgVQ-18" value="Enter answer here:" style="rounded=0;whiteSpace=wrap;html=1;align=left;fontSize=12;fillColor=none;fontColor=#1E2022;strokeColor=none;fontFamily=Roboto Condensed;fontSource=https%3A%2F%2Ffonts.googleapis.com%2Fcss%3Ffamily%3DRoboto%2BCondensed;" parent="1" vertex="1">
          <mxGeometry x="128" y="704" width="328" height="16" as="geometry" />
        </mxCell>
        <mxCell id="2VHBlUvyJRlqlRp6QgVQ-19" value="X" style="rounded=0;whiteSpace=wrap;html=1;fontSize=16;fillColor=none;fontColor=#1E2022;strokeColor=none;fontFamily=Inter;fontSource=https%3A%2F%2Ffonts.googleapis.com%2Fcss%3Ffamily%3DInter;fontStyle=1" parent="1" vertex="1">
          <mxGeometry x="424" y="720" width="32" height="32" as="geometry" />
        </mxCell>
        <mxCell id="2VHBlUvyJRlqlRp6QgVQ-20" value="Correct aisle: Thanks very much!" style="rounded=0;whiteSpace=wrap;html=1;align=right;fontSize=12;fillColor=none;fontColor=#018701;strokeColor=none;fontFamily=Roboto Condensed;fontSource=https%3A%2F%2Ffonts.googleapis.com%2Fcss%3Ffamily%3DRoboto%2BCondensed;" parent="1" vertex="1">
          <mxGeometry x="128" y="752" width="328" height="16" as="geometry" />
        </mxCell>
        <mxCell id="2VHBlUvyJRlqlRp6QgVQ-21" value="5|" style="rounded=0;whiteSpace=wrap;html=1;align=left;fontSize=16;fillColor=#191919;fontColor=#E9E5EA;fontFamily=Poppins;fontSource=https%3A%2F%2Ffonts.googleapis.com%2Fcss%3Ffamily%3DPoppins;strokeColor=none;shadow=0;" parent="1" vertex="1">
          <mxGeometry x="464" y="720" width="328" height="32" as="geometry" />
        </mxCell>
        <mxCell id="2VHBlUvyJRlqlRp6QgVQ-22" value="Enter answer here:" style="rounded=0;whiteSpace=wrap;html=1;align=left;fontSize=12;fillColor=none;fontColor=#E9E5EA;strokeColor=none;fontFamily=Roboto Condensed;fontSource=https%3A%2F%2Ffonts.googleapis.com%2Fcss%3Ffamily%3DRoboto%2BCondensed;" parent="1" vertex="1">
          <mxGeometry x="464" y="704" width="328" height="16" as="geometry" />
        </mxCell>
        <mxCell id="2VHBlUvyJRlqlRp6QgVQ-23" value="X" style="rounded=0;whiteSpace=wrap;html=1;fontSize=16;fillColor=none;fontColor=#E9E5EA;strokeColor=none;fontFamily=Inter;fontSource=https%3A%2F%2Ffonts.googleapis.com%2Fcss%3Ffamily%3DInter;fontStyle=1" parent="1" vertex="1">
          <mxGeometry x="760" y="720" width="32" height="32" as="geometry" />
        </mxCell>
        <mxCell id="2VHBlUvyJRlqlRp6QgVQ-24" value="Incorrect aisle: You Wally!" style="rounded=0;whiteSpace=wrap;html=1;align=right;fontSize=12;fillColor=none;fontColor=#CC0122;strokeColor=none;fontFamily=Roboto Condensed;fontSource=https%3A%2F%2Ffonts.googleapis.com%2Fcss%3Ffamily%3DRoboto%2BCondensed;" parent="1" vertex="1">
          <mxGeometry x="464" y="752" width="328" height="16" as="geometry" />
        </mxCell>
        <mxCell id="2VHBlUvyJRlqlRp6QgVQ-25" value="Total&lt;div&gt;Levels&lt;/div&gt;" style="rounded=0;whiteSpace=wrap;html=1;fontFamily=Roboto Condensed;fontSource=https%3A%2F%2Ffonts.googleapis.com%2Fcss%3Ffamily%3DRoboto%2BCondensed;fillColor=none;fontColor=#1E2022;strokeColor=none;" parent="1" vertex="1">
          <mxGeometry x="120" y="840" width="82" height="32" as="geometry" />
        </mxCell>
        <mxCell id="2VHBlUvyJRlqlRp6QgVQ-26" value="10" style="rounded=1;whiteSpace=wrap;html=1;fontSize=32;fontFamily=Kameron;fontSource=https%3A%2F%2Ffonts.googleapis.com%2Fcss%3Ffamily%3DKameron;fontStyle=1;fillColor=#4DA4C9;fontColor=#FFFFFF;arcSize=50;strokeColor=none;gradientColor=#00587D;gradientDirection=radial;" parent="1" vertex="1">
          <mxGeometry x="129" y="776" width="64" height="64" as="geometry" />
        </mxCell>
        <mxCell id="2VHBlUvyJRlqlRp6QgVQ-27" value="Correct&lt;div&gt;Answers&lt;/div&gt;" style="rounded=0;whiteSpace=wrap;html=1;fontFamily=Roboto Condensed;fontSource=https%3A%2F%2Ffonts.googleapis.com%2Fcss%3Ffamily%3DRoboto%2BCondensed;fillColor=none;fontColor=#1E2022;strokeColor=none;" parent="1" vertex="1">
          <mxGeometry x="202" y="840" width="82" height="32" as="geometry" />
        </mxCell>
        <mxCell id="2VHBlUvyJRlqlRp6QgVQ-28" value="7" style="rounded=1;whiteSpace=wrap;html=1;fontSize=32;fontFamily=Poppins;fontSource=https%3A%2F%2Ffonts.googleapis.com%2Fcss%3Ffamily%3DPoppins;fontStyle=1;fillColor=#4DAB4D;fontColor=#FFFFFF;arcSize=50;strokeColor=none;gradientColor=#005E00;gradientDirection=radial;" parent="1" vertex="1">
          <mxGeometry x="211" y="776" width="64" height="64" as="geometry" />
        </mxCell>
        <mxCell id="2VHBlUvyJRlqlRp6QgVQ-29" value="Missed&lt;div&gt;Answers&lt;/div&gt;" style="rounded=0;whiteSpace=wrap;html=1;fontFamily=Roboto Condensed;fontSource=https%3A%2F%2Ffonts.googleapis.com%2Fcss%3Ffamily%3DRoboto%2BCondensed;fillColor=none;fontColor=#1E2022;strokeColor=none;" parent="1" vertex="1">
          <mxGeometry x="284" y="840" width="82" height="32" as="geometry" />
        </mxCell>
        <mxCell id="2VHBlUvyJRlqlRp6QgVQ-30" value="1" style="rounded=1;whiteSpace=wrap;html=1;fontSize=32;fontFamily=Kameron;fontSource=https%3A%2F%2Ffonts.googleapis.com%2Fcss%3Ffamily%3DKameron;fontStyle=1;fillColor=#FFB74D;fontColor=#FFFFFF;arcSize=50;strokeColor=none;gradientColor=#B26B00;gradientDirection=radial;" parent="1" vertex="1">
          <mxGeometry x="293" y="776" width="64" height="64" as="geometry" />
        </mxCell>
        <mxCell id="2VHBlUvyJRlqlRp6QgVQ-31" value="Wrong&lt;div&gt;Answers&lt;/div&gt;" style="rounded=0;whiteSpace=wrap;html=1;fontFamily=Roboto Condensed;fontSource=https%3A%2F%2Ffonts.googleapis.com%2Fcss%3Ffamily%3DRoboto%2BCondensed;fillColor=none;fontColor=#1E2022;strokeColor=none;" parent="1" vertex="1">
          <mxGeometry x="366" y="840" width="82" height="32" as="geometry" />
        </mxCell>
        <mxCell id="2VHBlUvyJRlqlRp6QgVQ-32" value="2" style="rounded=1;whiteSpace=wrap;html=1;fontSize=32;fontFamily=Kameron;fontSource=https%3A%2F%2Ffonts.googleapis.com%2Fcss%3Ffamily%3DKameron;fontStyle=1;fillColor=#DB4D64;fontColor=#FFFFFF;arcSize=50;strokeColor=none;gradientColor=#8E0017;gradientDirection=radial;" parent="1" vertex="1">
          <mxGeometry x="375" y="776" width="64" height="64" as="geometry" />
        </mxCell>
        <mxCell id="2VHBlUvyJRlqlRp6QgVQ-33" value="" style="rounded=1;whiteSpace=wrap;html=1;fontSize=16;align=left;fontFamily=Poppins;fillColor=none;fontSource=https%3A%2F%2Ffonts.googleapis.com%2Fcss%3Ffamily%3DPoppins;fontColor=#1E2022;arcSize=4;" parent="1" vertex="1">
          <mxGeometry x="131" y="886" width="328" height="44" as="geometry" />
        </mxCell>
        <mxCell id="2VHBlUvyJRlqlRp6QgVQ-39" value="" style="rounded=1;whiteSpace=wrap;html=1;arcSize=50;fillColor=#00539F;fontFamily=Poppins;fontSource=https%3A%2F%2Ffonts.googleapis.com%2Fcss%3Ffamily%3DPoppins;fontColor=#1E2022;strokeColor=none;opacity=30;" parent="1" vertex="1">
          <mxGeometry x="131" y="944" width="64" height="32" as="geometry" />
        </mxCell>
        <mxCell id="2VHBlUvyJRlqlRp6QgVQ-40" value="" style="rounded=1;whiteSpace=wrap;html=1;arcSize=50;fillColor=#FFFFFF;fontFamily=Poppins;fontSource=https%3A%2F%2Ffonts.googleapis.com%2Fcss%3Ffamily%3DPoppins;fontColor=#1E2022;strokeColor=none;" parent="1" vertex="1">
          <mxGeometry x="139" y="948" width="24" height="24" as="geometry" />
        </mxCell>
        <mxCell id="2VHBlUvyJRlqlRp6QgVQ-42" value="" style="rounded=1;whiteSpace=wrap;html=1;fontFamily=Poppins;align=left;verticalAlign=middle;fontSize=12;fillColor=#E1E1E1;strokeColor=none;fontStyle=0;fontSource=https%3A%2F%2Ffonts.googleapis.com%2Fcss%3Ffamily%3DPoppins;fontColor=#1E2022;arcSize=50;" parent="1" vertex="1">
          <mxGeometry x="131" y="992" width="328" height="8" as="geometry" />
        </mxCell>
        <mxCell id="2VHBlUvyJRlqlRp6QgVQ-43" value="" style="rounded=1;whiteSpace=wrap;html=1;fillColor=#00539F;fontFamily=Poppins;fontSource=https%3A%2F%2Ffonts.googleapis.com%2Fcss%3Ffamily%3DPoppins;fontColor=#1E2022;arcSize=50;strokeColor=none;" parent="1" vertex="1">
          <mxGeometry x="131" y="992" width="144" height="8" as="geometry" />
        </mxCell>
        <mxCell id="2VHBlUvyJRlqlRp6QgVQ-44" value="" style="rounded=1;whiteSpace=wrap;html=1;fillColor=#FAFAFA;fontFamily=Poppins;fontSource=https%3A%2F%2Ffonts.googleapis.com%2Fcss%3Ffamily%3DPoppins;fontColor=#1E2022;arcSize=50;strokeColor=none;shadow=1;" parent="1" vertex="1">
          <mxGeometry x="259" y="984" width="24" height="24" as="geometry" />
        </mxCell>
        <mxCell id="2VHBlUvyJRlqlRp6QgVQ-45" value="&lt;font&gt;Language&lt;/font&gt;" style="rounded=0;whiteSpace=wrap;html=1;fontSize=12;align=left;fontFamily=Roboto Condensed;verticalAlign=middle;fillColor=#F0F0F0;fontSource=https%3A%2F%2Ffonts.googleapis.com%2Fcss%3Ffamily%3DRoboto%2BCondensed;fontColor=#1E2022;strokeColor=none;" parent="1" vertex="1">
          <mxGeometry x="137" y="880" width="50" height="12" as="geometry" />
        </mxCell>
        <mxCell id="2VHBlUvyJRlqlRp6QgVQ-46" value="" style="rounded=1;whiteSpace=wrap;html=1;fillColor=#FF0000;fontFamily=Poppins;fontSource=https%3A%2F%2Ffonts.googleapis.com%2Fcss%3Ffamily%3DPoppins;fontColor=#1E2022;arcSize=50;strokeColor=none;" parent="1" vertex="1">
          <mxGeometry x="139" y="896" width="24" height="24" as="geometry" />
        </mxCell>
        <mxCell id="2VHBlUvyJRlqlRp6QgVQ-47" value="&lt;font&gt;English&lt;/font&gt;" style="rounded=0;whiteSpace=wrap;html=1;fontSize=16;align=left;fontFamily=Poppins;verticalAlign=middle;fillColor=none;fontSource=https%3A%2F%2Ffonts.googleapis.com%2Fcss%3Ffamily%3DPoppins;fontColor=#1E2022;strokeColor=none;" parent="1" vertex="1">
          <mxGeometry x="171" y="896" width="240" height="24" as="geometry" />
        </mxCell>
        <mxCell id="2VHBlUvyJRlqlRp6QgVQ-49" value="" style="shape=image;aspect=fixed;image=data:image/png,iVBORw0KGgoAAAANSUhEUgAAAfQAAAH0CAYAAADL1t+KAAAACXBIWXMAAAk6AAAJOgHwZJJKAAAgAElEQVR4nO3dX4he6X3Y8ee4JsTQ1GOjpaZOYi2dixIteBTai9LCam/qXtWjUGhuiqWLhGJwpC3EuQiDVohcxKWV1obQPxRpyY0LpSv3LrlZLbTkorQzhpXphYLGiQ2BFc64KTgY0lPOvM/RvDN6Z97zvu/58zznfD4wrGzQzGjemfc7v+c853mLACRh/9KVnRDCVvxc5v9cefPM53g5vnXhML7N+3Duz0chhIP6z1dfPD3o6PMAViDo0IP9S1euxY9Sh/qL8b9b8f8bg4MY++rtu/Phv/ri6RPfZ9AtQYeWxGjXgf5CnKDPTtpTVge+mv6/X/8CIPbQDkGHFcVw10veb3a8/D0V9TL/h/WfhR5WI+hwgRjvnbhEvjOi5fFcHMS3agn/QOThfJ/0tYGZsiyrWF+bj/fBa2/46gzr1C9RZVmGM5F/UhSFTXlMXhB0pqwsy2sx4G/G/5KHRZF/Epfrq8Cb4pkkS+5MRlmWu3PxbrR0bkJPy87HHzX9fA7qyBdF8XgiXx4mzoTOaMUl9F0T+CTVU/ztMxP8Y0v0jJUJndEoy3JrLuC7bdwuZkJPywoT+kWq2+cezwX+aPxfOaZA0Mna3BT+5S52oAt6WloK+lnVxP4d0zu5E3SyEyP+lRjyTu//FvS0dBT0eYdxen9P3MmNoJOFuKHty20tpTcl6GnpIejz6qX579hYRw5siiNZcRK/1XfEIaq+525Ub2VZ1nF/1+ROqj7hkSEp23uXw/be/W++90fPq4Pa4hOqmDO0Ou77x9+b23v3j79XISEmdIa3vVc/WX6l3tj2ox//xANDkn70459UIb99/La9V03r74UQHoVn9+yWZ1CCznC293bnNrdBjur73auJ/XgzXXh2z/V2BiHo9Gu2TFlP45YsGZPd47ftvcO5qf3QI0xfBJ1+mMaZjuoX1TvHb6Z2eiTodOfk2vgt0zgTNT+1v+taO10SdNo3W1a/43YzeOny8XX2k6n9ruV42ua2NdqzvXctbO99EEJ47nYzWKhetXp+/LNS/cxAS0zobG5770acyC2rQ3Oz1+OfLcdXE/sjXzs2IeisZ3Z9fFfIYWPVz8/DsL135zjs1Yl0rrOzBkFnNbOQ344b3SypQ3tmYZ/d015toHsg7KxC0GlGyKEvW3Hl65awswpB52JCDkMRdlYi6Cwm5JAKYacRt63xqu29d+KtZ3fEHJJRh/15/BmFUwSdE9XtZ9t7Qg5p24oH1DyPt4zCMUvuhHi4xUO3n0FW5m93uxme3Xvi4Zs2QZ+y7b2deByl06ogX1XYq1PnqqC/HZ7dO/BYTpOgT9Fsw9v9eAQlMA7VL+b7YXvvUQy7jXMT4xr61JxseBNzGKcbNs5Nkwl9KlwnhympN859xfX16RD0sZu9lOn9eO46MC319fXHcRneS7aOmCX3MZstue2LOUzebry+bhl+xEzoY2R5HXiVZfiRE/QxsXsdWK5ehrcbfmQsuY/F9t6u3evACurd8C7JjYQJPXezqfyh6+TAGqrnj/fjprmbpvW8mdBzdjKVizmwiV3Tev5M6DkylQPtM61nzoSeG1M50C3TeqZM6LkwlQP9Ma1nyISeg9l95Q6IAfpWH0jjFRkzIOipm53s9IFDYoCB1Pet3/cApM2Se6pmZ7C/H0LYmfqXAkjC7TipX3cmfJpM6Cna3rsRl9jFHEjJTlyCd4BVgkzoKXF0K5C+2Qbd7b03HR2bFhN6Krb3duK1cjEHcnAjXlu3kpgIQU/BbPnqA0vsQGZ2YtQNIgkQ9KHNdo4+jMtYALmpl+Dtgh+Ya+hDmV0vN5UDY1Hvgn/LdfVhmNCHMLvm9FzMgZHZicfGem4bgKD37eSWNEvswBhtubVtGILep+29h/F6OcDYPYzPefTENfQ+zK6XV6e+OQ8ZmJIb8dTL666rd8+E3rWT+8vFHJiia+5X74egd+kk5r6RgSnbEfXuCXpXbH4DmGezXMcEvQuzlzy1GQTgVQ/jcyQtE/S2zXZ13hnXPwqgVXfsgG+fXe5tme1kr75Bd8fxDwLo1I34vHnTDvh2mNDbcHKMq5gDNLcbN8vZa9QCQd+UM9kBNrEj6u0Q9E04kx2gDc6Ab4Ggr+vkHnO/VQJsbsu96psR9HWIOUAXRH0Dgr4qMQfokqivSdBX4fQ3gD44VW4Ngt7U7BvLQQgA/Xko6s0JehNiDjAUUW9I0JcRc4ChiXoDgn4RMQdIhagvIejnEXOA1Ij6BQR9kdntEmIOkJ6HbmlbTNDPOrnPHIA0uU99AUGf59AYgBw4fGYBQa+JOUBORP0MQQ+nXgJVzAHyseWlV08IupgD5EzUo2kH/STmlmwA8jW7ZDrxqE99Qn8o5gCjMPnbjacb9O296oHfTeAzAaAdu/G5fZKmGfTtvXdCCE4bAhifG/E5fnKmF/TZsYF3EvhMAOjGnSkeETutoDvSFWAqJndE7HSC7khXgKmZ1MEz0wj67FaGh+41B5iUrTipT+K5fyoT+vtuTwOYpJ3YgNEbf9BntzBcS+AzAWAY16ZwO9u4gz7b5ej2NABujH3n+3iDbkc7AKeNeuf7OIN+ckY7AMwb7Znvowz613/tH3r1NAAW2YqNGJ3RBb0sy/u/+/V/tPP8yb8MN37lagKfEQApqJpQtaFqRNWKsT0oowp6WZbVhofb1Z8vf34rPPzd60HYAaatDnnVhKoN0e3YjNEYTdDLsqw2OrzyG5ewA0zTOSGfdz+2YxRGEfSyLJeeBCfsANPQIOS143bEhmRvLBP6/aYnwQk7wDitEPJ5C1d3c5R90OM1kJWvgwg7wDisGfJ5N8ZwPT3roJdleXnT36yEHSBPLYR83v3YlGzlPqG/39b95sIOkIeWQ17byv1FXLINelmW73TxCmrCDpCmjkI+L+v707MMelmW1aun3enyYwg7QBp6CPm827Ex2cku6HO3qPVC2AGG0XPI52V5K1uOE3oV8943Lgg7QD8GDHntco6v1plV0Muy3A0h7A75OQg7QDcSCPm83dicbGQT9L6X2pcRdoB2JBbyY//3v/+P8Mf/9Nce7l+6ks3Se04T+oVHuw5F2AHWk2rIn+3ePH77iw//KKlBcpksgp7CUvsywg7QTOohr/48Z3f/0pUslt6TD3pqS+3LCDvAYpmFfF4WS+85TOhJLrUvI+wAMxmHvJbFYJl00HNYal9G2IGpGkHI5yW/9J5s0HNbal9G2IGpGFnI5yW99J7yhH4/x6X2ZYQdGKsRh7y2lfJrpycZ9HiObvavTXsRYQfGYgIhn3dj/9KVJM96T3VCH81S+zLCDuRqYiGfl2Sjkgt6fFnUrF9kfh3CDuRiwiGvXd6/dOWdrj/IqpIKelmWVchvJfCpDEbYgVQJ+Sm39i9dSWr4TG1CH+VGuHUIO5AKIV8ouQ1yyQQ9boTL+p7zLgg7MBQhX2o3pQ1yKU3ok9kItw5hB/oi5CtJpl1JBH2qG+HWIexAV4R8LclskBs86PFEuElvhFuHsANtEfKN3UrhBLkUJnQb4TYg7MC6hLw1SWyQGzToZVnujP1EuL4IO9CUkHeiOkFuZ8hPYOgJPdkzcXMl7MB5hLxzgzZtsKDH29SSPA93DIQdqAl5b64NeRvbkBO629R6IOwwXUI+iMHaNkjQy7K84Ta1fgk7TIeQD6q6jW2QvWFDTeh3Bvq4kyfsMF5CnoxBGtd70B0ikwZhh/EQ8uQMcthMr0F3iEx6hB3yJeRJ6/2wmb4n9NsOkUmTsEM+hDwLW7F5vekt6KbzPAg7pEvIs9PrlN7nhG46z4iwQzqEPFu9Tum9BL36DeV7f/cf3/rRt7/Tx4ejRcIOwxHyvP3ML3w+XP6P//pWXKHuXF8T+u2ffv8HW3/ytd8O3/vlLwVhz4+wQ3+EPG9VyH/xW78Tful//UHY+idf6m1K7zzo8frBy2vnP/3THwZhz5ewQ3eEPG/zIf/sr355/t/Sy5Tex4S+8Nq5sOdN2KE9Qp63C0Je62VK7zToZ6fzRYQ9b8IO6xPyvDUI+bzOp/SuJ/TdpjvbhT1vwg7NCXneVgx5bSs2sTNdB33l82yFPW/CDucT8rytGfJ5nZ7x3lnQ46vNrH1mu7DnTdjhhJDnrYWQ1y7HVxvtRJcTeiu/iQh73oSdKRPyvLUY8nmdnZjaSdD3L1251vYrqgl73oSdKRHyvHUU8tpOWZbXuvgCdTWhd3adQNjzJuyMmZDnreOQz+ukka0Hff/SlWoy7+S3j3nCnjdhZ0yEPG89hrx2rSzLVlexQ0cTeqe7+M4S9rwJOzkT8rwNEPJ5rbeyaPOdxYNkng/5qmrVA/S5r391iAeHFhz+8Cjc/eYH4fLPb4U7X3tr8C/pwWtvDP45cGLn448G/2rc/dYH4fAHR+HOb7yVTMRDDPmf/avfE/EGEunEUQjh9aIojtp6h20HvTra7n6b73Ndwk4bBD0tKQQ9NULeXIJdeLsoigdtvbO2g/687d3tmxJ2NiHoaRH0E0LeXMIdOCyK4vW23llrQd+/dKU60u79tt5f24SddQh6WgRdyFeRyfP+9aIoHrfxjtoM+vtdn1PbBmFnFYKelikHXciby+x5/nFRFNfbeEetBD3eqva8jffVF2GnCUFPyxSDLuTNZfy8Xm2OO9z0nbR121pnZ9N2xe1uQMrcftbcwLeftaGVhrY1oSe3GW5VJnYWMaGnZQoTuom8uRE9b7eyOW7joKe+GW5Vws48QU/LmIMu5M2N9Hl6481xbQQ9i81wqxJ2gqAnZ4xBF/LmRv68vPHmuI2CHk+G+/NN3kfqhH3aBD0tYwq6kDc3oefhz2xyctymm+Ky2wy3KpvngDbZ7NbcCDa7rWqjpm46oe9XvzRv8j5yY2KfFhN6WnKe0E3kzU34efagKIq1X6Vq7aDneO95m4R9GgQ9LTkGXcib87x6bO170jdZcr+1wd/NnqV44CKW1pub4NL6RdZu69oT+h//s3/x/P/95V9mfe95m+rfLH/mF/7WeP5RmNATk8uEbiJv7rO/uivip619T/paQS/Lsrpuvr/O34WcCHpavDgLE3G1KIqDVf+p6y65T3q5HQA6tFZj1w366A6SAYBErNXYlYNelmX1gbY86gDQia3Y2pWsM6HbvQAA3Vq5tesE3XI7AHSr2wk97m633A4A3dqKzW1s1Qn9Kx5AAOjFSs1dNeiW2wGgHys1t3HQ4+jvZDgA6MflVZbdV5nQTecA0K9rTT/aKkF3uxoA9KvxdfRGQS/Lcmtqr3sOAAnYiQ1equmEbrkdAIbRqMFNg/6mBxEABtGowSZ0AEhbOxO60+EAYFCNTo1rMqGbzgFgWEtb3CTorp8DwLCWtrhJ0Bvf1A4AdGJpiy8M+jovsA4AtG9Zk5dN6JbbASANFzZ5WdAttwNAGi5s8rKgO+4VANJwYZPPDXpZlqZzAEjIRW2+aEIXdABIy1pBtyEOANJybptN6ACQj9Um9CZnxgIA/Tuv0edN6KZzAEjTwkafF/QvehABIEkLG31e0C25A0CaVlpyF3QASNPCRhdn/4/9S1eqtfkPPIgAkKy3rr54+mT+k1s0oZvOASBtr7R6UdBtiAOAtL3SahM6AOSn0YQu6ACQtouDHjfEAQCJO9vssxP6ZQ8gAGThVLMFHQDydGHQvWQqAOThVLNN6ACQJ0vuADACi4NuhzsA5GW+3fMT+pbHEQCy8rLd80F3oAwA5OVlu+eD/gUPIgBk5WW754NuQxwA5OVluy25A0C+Fi652xQHAHk5vSnOLWsAkKe64YtePhUAyEwddNfPASBPxw2vg+76OQDk6bjhddC/6EEEgCwdN9yEDgB5OzWhCzoA5OlU0G2KA4A8ndoUBwBkrNi/dKUq+74HEQCydfUTrp8DQPa2LLkDwAh8woY4AMjejiV3AMifJXcAGANBB4ARqIL+pgcSALL2pgkdAEZA0AFgBAQdAEagCvplDyQAZO2yoANA/i5bcgeAERB0ABgBQQeAERB0ABgBQQeAERB0ABgBQQeAERB0ABgBQQeAERB0ABgBQQeAERB0ABgBQQeAERB0ABgBQQeAERB0ABgBQQeAERB0ABgBQQeAERB0ABgBQQeAEaiCfuiBBICsHQo6AOTv0JI7AIyAoAPACAg6AIxAFfQPPZAAkLUPTegAMAKCDgAjUAX9yAMJAFk7qoJ+4DEEgKwdWHIHgBGw5A4A+Tsqqn/C/qUrpQcTAPJ09cXTwpI7AIxAHXQb4wAgT8cNr4PuOjoA5Om44YIOAHk7FfTvejABIEvHDTehA0DeTk3oNsUBQJ5ObYoDADJW1J+6w2UAID/VoTLhzITuOjoA5OVlu+eD7jo6AOTlZbvng37oQQSArLxs93zQv+8xBICsvGy3JXcAyNfCJXeb4gAgLy/bXcx/2m5dA4B81LeshQUHy9gYBwB5ONVsQQeAPF0Y9A89qACQhVPNNqEDQJ4suQPACJxqdnH232OnOwCkb36Hezjn5VMdMAMAaXul1YIOAPlpFPTvemABIGmvtNqEDgD5eaXVr2yKq5RlaWMcVD8xr73hy5CQnY8/mvqXAI4VRfFKvxdN6MGUDgDJWthoQQeAvKwUdBvjACBNCxt9XtCfeBABIEkLG70w6EVRWHIHgASd1+jzJvRgSgeA5Jzb5ouC7qVUASAt57bZhA4A+Vh9Qi+KQtABICEXtfmiCT24Hx0AknFhk5cF3ZQOAGm4sMnLgm5jHACk4cImXxj0oigeexABYHjLmrxsQg+W3QFgcEtb3CTolt0BYFhLW9wk6JbdAWBYS1u8NOjxzNgjDyQADOKoyWusNJnQgykdAAbTqMFNg+46OgAMo1GDTegAkLb2JvSiKI4cAwsAvTuIDV6q6YRe+Y7HEQB69V7TD7ZK0C27A0C/Gh/u1jjoccv8oQcSAHpx2OR2tdoqE3owpQNAb1Zq7qpBb7yWDwBsZKXmrhR0p8YBQC8anQ43b9UJPVh2B4DOrdzadYLu9jUA6NbKrV056PEF1i27A0A3jmJrV7LOhB4suwNAZ9Zq7LpBf9fjCACdWKuxn1znL1U778qyrA6ZueyxnPnRt78TfvRtCxdN/PV/8PfC537zq+l/okCnfvLR/w5/9o3fC3/1f/7CFzr6xM/+7OHf/k//dq3XTlkr6FFVr9sb/P1RqEJefUP+9E9/OPUvxVJ1yKv/Anzqjb8TfvFbvxM+/ve/Hz7+d78f/urHwr7JJe1i3b9YlmU1nT9f9+/nTsibyznkB6+9kcBnQW3n4498LUaqirmwH3v96ounax2zvnbQwyzq+9XP2CbvIzdC3twYJnJBT4ugj9/Ew35w9cXTq+v+5U2W3EM8lm4SQRfy5iytA+v6a5/+uePnj9d+/Z9PMewbHa++6YS+FUL4803eR+qEvLkxhtyEnhYT+vRMbGL/zNUXT9c+52WjoIdZ1N8PIexu+n5SI+TNjXkiF/S0CPp0TSDsj6++eHp9k3fQRtCrmL+/6ftJhZA3N4WldUFPi6Az4rBfv/ri6Ub3Pm8c9DCL+vPc70kX8uamdI1c0NMi6NRGFvbDqy+evr7pO1n3pLizsn2d9Crk3/vlL4U/+dpvi/kSVcC3Hz88frPhDRhSvXnul/7nH4bPff2rx/87Y600tK0JPbt70k3kzU1517oJPS0mdM6T+cS+9r3n81oJeshoc5yQN+f2M0FPjaCzTIZh33gzXK3NoCe9OU7ImxPyE4KeFkGnqYzCvvFmuFprQQ+Jbo4T8uaE/FWCnhZBZ1WJh72VzXC1toNevVjL/Tbf57qEvDkhP5+gp0XQWVeiYX/76ounD9p6Z20HfStujttq8/2uQsibSzHkhz88Cne/+UG4/PNb4c7X3hr88xH0tKQQ9Lvf+iAc/uAo3PmNt8Llzw/2VMeaEgr7UdwMt/bJcGe1ddvasaIojjZ56bdNuP2suRRvP6tCfvO33g+vX/s34dF/2U/gM4LzVd+j1fdq9T1bfe+Sj4Rud3vcZsxD20GP7nbwPs8l5M0JObRL2POVQNhbb+Wmr7b2iqIoDsuyfBJCuNb2+55nab25lJfWRZwxqL6Pq7cbv3LVUnxmBnp1tydt3Hd+VutBj+52FXQhb07IoV/Cnq+ew97JSnYnQS+K4klZlgdtvla6kDcn5DAsYc9XD2E/uPri6ZMuvkBdXEOvvdvGO3GNvDnXyCEtrrHnq8Nr7K20cZHOgl4UxaPq+Xzdvy/kzQk5pE3Y89Vy2KuDZB519cXockIP61wnEPLmhBzyIuz5ainsnd4F1nXQH8eb55cS8uaEHPIm7PnaIOydn9PSadDjQTMXXi8Q8uaEHMZF2PO1RtjfbfsgmbO6ntArDxZN6ULenJDDuAl7vhqG/Si2sFOdB/3slC7kzQk5TIuw52tJ2DufzkNPE3rlwdF//YMjIW9GyGHahD1fr4R962/0Mp2HDk+KO6Wa0vcvXamm9Dt9fLxcORAGmOeAmnzVYf/cb3713bhS3blegh5Vv6HcGvKlVVMl5MBFhD1bvU3noccl9xCvH3R2Qk6OLK0Dq7AUn53epvPQ84QeTOkzJnJgEyb2LPQ6nYc+J/RgSjeRA60ysSet1+k89B30MIv6O5uc8Z4jIQe6JOzJOSyK4p2+P2jfS+616jzbhwN97N5YWgf6ZCk+GZ2e2X6e3if0MJvSN3olttSZyIEhmdgHdRhfbbR3Q03olZshhA+G/bq3y0QOpMTEPoibQ33gQSb0MJvSn4QQngz18dtkIgdSZmLvzZOiKAbr2pATeuXtEEK2tTGRAzkxsXfu7SE/+GATephN6QfV99iQn8M6TORAzkzsnXhUFMXBkJ/A0BN6iL/R7OZw2IyJHBgTE3trjoaezsPQE3rI5LAZEzkwZib2jfV+iMwigwc9JHzYjJADUyLsaxnkEJlFUlhyryVzG5uldWDKLMWvZLDb1M5KYkIPJ7exPR7yczCRA5wwsS/1eMjb1M5KaUIPcVPBtb43yJnIAc5nYl8oiY1w85KZ0MNsSj/sc4OciRygORP7KdVGuKT2fiUV9NDTBjkhB1ifsKezEW5eakvutU42yFlaB2jPhJfik9kINy+5CT2cbJBr7QQ5EzlAdyY2sT9KaSPcvFQn9NDGCXImcoD+TGBiT24j3LwkJ/RwcoLcWssaJnKA4Yx4Yr+Zwolw50k26GEW9cer3Jsu5ADpGFnYq3vOBz0rZZmUl9xrN5fdm25pHSBdI1iKX3vFuE9JT+hhydK7iRwgHxlP7EkvtdeSD3pYsPQu5AD5yizsyS+113JYcq/d/Lk3//61v/n2r29ZWgfIXwZL8VkstdeyCXq19F7+54+qL+z7CXw6Qg7QkoTDnsVSey2LJfdaXPYYdOnD0jpANxJbis9mqb2WVdCjm12f9b6IkAP0I4GwH+a01F7LLuhx+aO3L7SQAwxjwLBntdRey3FCD/Ec3QddfgwhB0hDz2G/m+pZ7ctkGfQwi3p1nu5B2+9XyAHS1EPYD1J8WdSmsg16dD3eVrAxIQfIQ0dhP4pNyVbWQS+K4nDTV74RcoA8tRz2t2NTspX7hF5F/dE6r50u5ADj0ELYH8WWZC37oEeNr6cLOcA4rRn2g5Rf43wVowj63K1s5z6CQg4wDSuE/SjXW9QWGcuEXkV94W9ZQg4wTQ3CfjO2YxRGE/Rwcj39+P50IQcgnB/2B7kd7brMqIIe4v3pv/WNPzwQcgDm1WGvGhHPMhmV0QW98o3/8N/eauv+dABG5Sg2YnRGGfTw7F4V81E+YABs5K3YiNEZZ9DDcdQPcny1HAA6czO2YZTGG/RwHPW1Dp0BYHQexSaM1riDHo6jXk3pWb5yDgCteBJbMGrjD/rM9S5emQ2A5B3k/qIrTU0j6LMNEBeeJAfA6BzF6+aTeO6fyoReb5Kz8x1gOt4a8ya4s6YT9GDnO8CEjHpH+yLTCnp4ufP9bgKfCQDduDv2He2LTC/o4Tjq77idDWCUHsXn+MmZZtDDy9vZRnUwP8DEPZ7C7WnnmW7QZ266nQ1gFCa/R2raQT85813UAfI1u4tpIrennWfqE/p81N2jDpCfIzGfEfQg6gCZEvM5gl47OXjGNwZA+o6mdnDMMoI+T9QBciDmCwj6WY6IBUidmC8g6Is4IhYgVZM70rUpQT/P7NhAUQdIx80pHunalKBfRNQBUiHmSwj6MqIOMDQxb0DQmxB1gKGIeUOC3pSoA/RNzFcg6KuYfWNddZ86QKeOjp9rxXwlgr4qh88AdMmhMWsS9HWIOkAXxHwDgr4uUQdok5hvSNA3MfvGe93rqQNsZPZcKuYbEfRNnbz0qm9EgNUdeAnUdgh6G06i/jj/fwxAbx6LeXs+OZZ/yOBm35DXw/bewxDCjYl/NQCWeRSe3XO2R4tM6G2bfYPeHdc/CqBVd8W8fYLehWf33nGqHMBCN+NzJC0T9K44VQ5gntPfOiboXTq5V90OeGDKDtxj3j1B79pJ1J+M+x8KsNATMe+HXe59qG9rswMemBY72XtkQu/T7BvbNzcwBTfFvF+C3jeb5YBxs/ltIII+BGfAA+PkTPYBCfpQquvqz+5Vk/qDaX4BgJF5cPyc5hjXwQj60J7dezteV/dDAORoduz17LmMAQl6CmbXmtyvDuSmvr/cC1MlQNBTcXK/uo0kQA4eub88Le5DT8ns2tPNsL33YQjhfghha+pfEiA51fPU23axp8eEnqKTW9v85guk5MAtaekS9FQ9u3cYd8F7KVYgBXfjLvZDj0aaBD11s5cZrK6t+yEChnAYr5V7ydPECXoOnt17Epfg7SQF+vQ4LrF7cakM2BSXi9mGuethe283hPDQhjmgQ0fxLHZDREZM6LmZ/YC9bloHOvI4Ht/qOSYzJvQcmdaB9pnKM2dCz5lpHWiHqXwETOi5M60D6zOVj4gJfSxOpnUHPgBNPDKVj4sJfUxOjo59L07rl6f+JQFecRincuVtrmgAAAOJSURBVLeijYygj9HsB/X1sL1XHQRxyzI8EJfX33VAzHhZch+z2Q+uA2mA+oAYMR8xE/rYzc5drjbNXbMMD5NjeX1CBH0qLMPDlFhenyBL7lMz+wG3Gx7Gq969LuYTI+hTVO2Gf3bvZry+bikOxuFJvE5+M97xwsRYcp+yZ/cOjl8W0fV1yJnr5BwTdOavr98IIdwRdshCFfK74dk9l884JuicmD0xPLJxDpJmwxsLuYbOq042zt2NTx7A8I7iz6QNbyxkQmex2aaad8L23oMQwm0TOwxmNpGH8MBmNy4i6FxM2GEoQs5KBJ1mhB36IuSsRdBZzemw79oVD605jNfIHws56xB01jN7wql3xd+IE/uOryaszO1ntMIudzZXPRE9u3f1+JAaJ89BU0+Of2ae3XtdzGmDCZ32zA6oeRK29y7Hpfhd19nhlKP4UqZ34yshQmsEnfbNnqhuhu29t0MI9XK86+xM2WHc6PbI9XG6Iuh0Z/bE9eD4bXuvmta/Eqd2mIpqGn8vPLv32CNO1wSdfsye0B7H5fgbMe6mdsbo8Djis2ncsjq9EXT6NXuCeyfe+mZqZ0xM4wxK0BnOydS+NTe1u/WNnBzMTeOujTMoQWd4p6+1V8vwtz776U/tWpInRZ/99KcO4zT+riV1UlJ4NEhVWZY7cYf8YLe/Hbz2hu+PhOx8/NFQn0x9u9m7RVEcpPi1AQfLkKzqibMoiptFUXwmhHA9nkxnWZO+1KchXq++B+P3opiTLBM62YmTe72ZrtNleRN6WnqY0Ovl9PfEm9y4hk524hNt9fZ2jPs1G+rYQL2x7YmIkzNBJ2tzcX9QluVWnNrfdOwsF6ivh39Y/bcoCpdxGAVL7oxWnN7rwF9b599pyT0tGyy5P5kLuCmcUTKhM1pz0/uxsizn4255ftwO6ogXReGgFyZB0JmM+MT+8sm9LMtrMe5rT/Ako57Aq+vgXsKXSRJ0Jis+8b988p/bYPfFOMGb4tNUr7x810Y2OCHoEJ1doq/sX7pSL8+L/DDm431g+obz2RQHK4qRvxzf3pz7M+s7jG8f1n+++uKpeMMKBB1aEkO/Faf4L8TI77h97qWjOG1Xwf5+/PORcEM7BB16EGMf5gL/xfjfrREt4x/EaB/FJfI64EG0oXuCDonYv3Rlfpo/O9m/eeaz7HKZv17+nvfh3J+P5vYaVBO2TWkwtBDC/wf3JTXwtm09TAAAAABJRU5ErkJggg==;fontFamily=Inter;fontSource=https%3A%2F%2Ffonts.googleapis.com%2Fcss%3Ffamily%3DInter;" parent="1" vertex="1">
          <mxGeometry x="139" y="896" width="24" height="24" as="geometry" />
        </mxCell>
        <mxCell id="2VHBlUvyJRlqlRp6QgVQ-50" value="" style="triangle;whiteSpace=wrap;html=1;fontSize=8;fontColor=#067302;strokeColor=none;fillColor=#252525;gradientColor=none;aspect=fixed;rotation=90;fontFamily=Inter;fontSource=https%3A%2F%2Ffonts.googleapis.com%2Fcss%3Ffamily%3DInter;" parent="1" vertex="1">
          <mxGeometry x="435" y="904" width="8" height="8" as="geometry" />
        </mxCell>
        <mxCell id="2VHBlUvyJRlqlRp6QgVQ-51" value="" style="rounded=1;whiteSpace=wrap;html=1;fontSize=16;align=left;fontFamily=Poppins;fillColor=none;fontSource=https%3A%2F%2Ffonts.googleapis.com%2Fcss%3Ffamily%3DPoppins;fontColor=#E9E5EA;arcSize=4;strokeColor=#E9E5EA;" parent="1" vertex="1">
          <mxGeometry x="499" y="886" width="328" height="44" as="geometry" />
        </mxCell>
        <mxCell id="2VHBlUvyJRlqlRp6QgVQ-59" value="" style="rounded=1;whiteSpace=wrap;html=1;arcSize=50;fillColor=#00539F;fontFamily=Poppins;fontSource=https%3A%2F%2Ffonts.googleapis.com%2Fcss%3Ffamily%3DPoppins;fontColor=#1E2022;strokeColor=none;" parent="1" vertex="1">
          <mxGeometry x="202" y="944" width="64" height="32" as="geometry" />
        </mxCell>
        <mxCell id="2VHBlUvyJRlqlRp6QgVQ-60" value="" style="rounded=1;whiteSpace=wrap;html=1;fontFamily=Poppins;align=left;verticalAlign=middle;fontSize=12;fillColor=#191919;strokeColor=none;fontStyle=0;fontSource=https%3A%2F%2Ffonts.googleapis.com%2Fcss%3Ffamily%3DPoppins;fontColor=#1E2022;arcSize=50;" parent="1" vertex="1">
          <mxGeometry x="475" y="992" width="328" height="8" as="geometry" />
        </mxCell>
        <mxCell id="2VHBlUvyJRlqlRp6QgVQ-61" value="" style="rounded=1;whiteSpace=wrap;html=1;fillColor=#00539F;fontFamily=Poppins;fontSource=https%3A%2F%2Ffonts.googleapis.com%2Fcss%3Ffamily%3DPoppins;fontColor=#1E2022;arcSize=50;strokeColor=none;" parent="1" vertex="1">
          <mxGeometry x="475" y="992" width="144" height="8" as="geometry" />
        </mxCell>
        <mxCell id="2VHBlUvyJRlqlRp6QgVQ-62" value="" style="rounded=1;whiteSpace=wrap;html=1;fillColor=#FFFFFF;fontFamily=Poppins;fontSource=https%3A%2F%2Ffonts.googleapis.com%2Fcss%3Ffamily%3DPoppins;fontColor=#1E2022;arcSize=50;strokeColor=none;shadow=1;" parent="1" vertex="1">
          <mxGeometry x="603" y="984" width="24" height="24" as="geometry" />
        </mxCell>
        <mxCell id="2VHBlUvyJRlqlRp6QgVQ-63" value="&lt;font&gt;Language&lt;/font&gt;" style="rounded=0;whiteSpace=wrap;html=1;fontSize=12;align=left;fontFamily=Roboto Condensed;verticalAlign=middle;fillColor=#252525;fontSource=https%3A%2F%2Ffonts.googleapis.com%2Fcss%3Ffamily%3DRoboto%2BCondensed;fontColor=#E9E5EA;strokeColor=none;" parent="1" vertex="1">
          <mxGeometry x="505" y="880" width="50" height="12" as="geometry" />
        </mxCell>
        <mxCell id="2VHBlUvyJRlqlRp6QgVQ-64" value="" style="rounded=1;whiteSpace=wrap;html=1;fillColor=#FF0000;fontFamily=Poppins;fontSource=https%3A%2F%2Ffonts.googleapis.com%2Fcss%3Ffamily%3DPoppins;fontColor=#1E2022;arcSize=50;strokeColor=none;" parent="1" vertex="1">
          <mxGeometry x="507" y="896" width="24" height="24" as="geometry" />
        </mxCell>
        <mxCell id="2VHBlUvyJRlqlRp6QgVQ-65" value="&lt;font&gt;English&lt;/font&gt;" style="rounded=0;whiteSpace=wrap;html=1;fontSize=16;align=left;fontFamily=Poppins;verticalAlign=middle;fillColor=none;fontSource=https%3A%2F%2Ffonts.googleapis.com%2Fcss%3Ffamily%3DPoppins;fontColor=#E9E5EA;strokeColor=none;" parent="1" vertex="1">
          <mxGeometry x="539" y="896" width="240" height="24" as="geometry" />
        </mxCell>
        <mxCell id="2VHBlUvyJRlqlRp6QgVQ-66" value="" style="rounded=1;whiteSpace=wrap;html=1;arcSize=50;fillColor=#FAFAFA;fontFamily=Poppins;fontSource=https%3A%2F%2Ffonts.googleapis.com%2Fcss%3Ffamily%3DPoppins;fontColor=#1E2022;strokeColor=none;" parent="1" vertex="1">
          <mxGeometry x="234" y="948" width="24" height="24" as="geometry" />
        </mxCell>
        <mxCell id="2VHBlUvyJRlqlRp6QgVQ-67" value="" style="shape=image;aspect=fixed;image=data:image/png,iVBORw0KGgoAAAANSUhEUgAAAfQAAAH0CAYAAADL1t+KAAAACXBIWXMAAAk6AAAJOgHwZJJKAAAgAElEQVR4nO3dX4he6X3Y8ee4JsTQ1GOjpaZOYi2dixIteBTai9LCam/qXtWjUGhuiqWLhGJwpC3EuQiDVohcxKWV1obQPxRpyY0LpSv3LrlZLbTkorQzhpXphYLGiQ2BFc64KTgY0lPOvM/RvDN6Z97zvu/58zznfD4wrGzQzGjemfc7v+c853mLACRh/9KVnRDCVvxc5v9cefPM53g5vnXhML7N+3Duz0chhIP6z1dfPD3o6PMAViDo0IP9S1euxY9Sh/qL8b9b8f8bg4MY++rtu/Phv/ri6RPfZ9AtQYeWxGjXgf5CnKDPTtpTVge+mv6/X/8CIPbQDkGHFcVw10veb3a8/D0V9TL/h/WfhR5WI+hwgRjvnbhEvjOi5fFcHMS3agn/QOThfJ/0tYGZsiyrWF+bj/fBa2/46gzr1C9RZVmGM5F/UhSFTXlMXhB0pqwsy2sx4G/G/5KHRZF/Epfrq8Cb4pkkS+5MRlmWu3PxbrR0bkJPy87HHzX9fA7qyBdF8XgiXx4mzoTOaMUl9F0T+CTVU/ztMxP8Y0v0jJUJndEoy3JrLuC7bdwuZkJPywoT+kWq2+cezwX+aPxfOaZA0Mna3BT+5S52oAt6WloK+lnVxP4d0zu5E3SyEyP+lRjyTu//FvS0dBT0eYdxen9P3MmNoJOFuKHty20tpTcl6GnpIejz6qX579hYRw5siiNZcRK/1XfEIaq+525Ub2VZ1nF/1+ROqj7hkSEp23uXw/be/W++90fPq4Pa4hOqmDO0Ou77x9+b23v3j79XISEmdIa3vVc/WX6l3tj2ox//xANDkn70459UIb99/La9V03r74UQHoVn9+yWZ1CCznC293bnNrdBjur73auJ/XgzXXh2z/V2BiHo9Gu2TFlP45YsGZPd47ftvcO5qf3QI0xfBJ1+mMaZjuoX1TvHb6Z2eiTodOfk2vgt0zgTNT+1v+taO10SdNo3W1a/43YzeOny8XX2k6n9ruV42ua2NdqzvXctbO99EEJ47nYzWKhetXp+/LNS/cxAS0zobG5770acyC2rQ3Oz1+OfLcdXE/sjXzs2IeisZ3Z9fFfIYWPVz8/DsL135zjs1Yl0rrOzBkFnNbOQ344b3SypQ3tmYZ/d015toHsg7KxC0GlGyKEvW3Hl65awswpB52JCDkMRdlYi6Cwm5JAKYacRt63xqu29d+KtZ3fEHJJRh/15/BmFUwSdE9XtZ9t7Qg5p24oH1DyPt4zCMUvuhHi4xUO3n0FW5m93uxme3Xvi4Zs2QZ+y7b2deByl06ogX1XYq1PnqqC/HZ7dO/BYTpOgT9Fsw9v9eAQlMA7VL+b7YXvvUQy7jXMT4xr61JxseBNzGKcbNs5Nkwl9KlwnhympN859xfX16RD0sZu9lOn9eO46MC319fXHcRneS7aOmCX3MZstue2LOUzebry+bhl+xEzoY2R5HXiVZfiRE/QxsXsdWK5ehrcbfmQsuY/F9t6u3evACurd8C7JjYQJPXezqfyh6+TAGqrnj/fjprmbpvW8mdBzdjKVizmwiV3Tev5M6DkylQPtM61nzoSeG1M50C3TeqZM6LkwlQP9Ma1nyISeg9l95Q6IAfpWH0jjFRkzIOipm53s9IFDYoCB1Pet3/cApM2Se6pmZ7C/H0LYmfqXAkjC7TipX3cmfJpM6Cna3rsRl9jFHEjJTlyCd4BVgkzoKXF0K5C+2Qbd7b03HR2bFhN6Krb3duK1cjEHcnAjXlu3kpgIQU/BbPnqA0vsQGZ2YtQNIgkQ9KHNdo4+jMtYALmpl+Dtgh+Ya+hDmV0vN5UDY1Hvgn/LdfVhmNCHMLvm9FzMgZHZicfGem4bgKD37eSWNEvswBhtubVtGILep+29h/F6OcDYPYzPefTENfQ+zK6XV6e+OQ8ZmJIb8dTL666rd8+E3rWT+8vFHJiia+5X74egd+kk5r6RgSnbEfXuCXpXbH4DmGezXMcEvQuzlzy1GQTgVQ/jcyQtE/S2zXZ13hnXPwqgVXfsgG+fXe5tme1kr75Bd8fxDwLo1I34vHnTDvh2mNDbcHKMq5gDNLcbN8vZa9QCQd+UM9kBNrEj6u0Q9E04kx2gDc6Ab4Ggr+vkHnO/VQJsbsu96psR9HWIOUAXRH0Dgr4qMQfokqivSdBX4fQ3gD44VW4Ngt7U7BvLQQgA/Xko6s0JehNiDjAUUW9I0JcRc4ChiXoDgn4RMQdIhagvIejnEXOA1Ij6BQR9kdntEmIOkJ6HbmlbTNDPOrnPHIA0uU99AUGf59AYgBw4fGYBQa+JOUBORP0MQQ+nXgJVzAHyseWlV08IupgD5EzUo2kH/STmlmwA8jW7ZDrxqE99Qn8o5gCjMPnbjacb9O296oHfTeAzAaAdu/G5fZKmGfTtvXdCCE4bAhifG/E5fnKmF/TZsYF3EvhMAOjGnSkeETutoDvSFWAqJndE7HSC7khXgKmZ1MEz0wj67FaGh+41B5iUrTipT+K5fyoT+vtuTwOYpJ3YgNEbf9BntzBcS+AzAWAY16ZwO9u4gz7b5ej2NABujH3n+3iDbkc7AKeNeuf7OIN+ckY7AMwb7Znvowz613/tH3r1NAAW2YqNGJ3RBb0sy/u/+/V/tPP8yb8MN37lagKfEQApqJpQtaFqRNWKsT0oowp6WZbVhofb1Z8vf34rPPzd60HYAaatDnnVhKoN0e3YjNEYTdDLsqw2OrzyG5ewA0zTOSGfdz+2YxRGEfSyLJeeBCfsANPQIOS143bEhmRvLBP6/aYnwQk7wDitEPJ5C1d3c5R90OM1kJWvgwg7wDisGfJ5N8ZwPT3roJdleXnT36yEHSBPLYR83v3YlGzlPqG/39b95sIOkIeWQ17byv1FXLINelmW73TxCmrCDpCmjkI+L+v707MMelmW1aun3enyYwg7QBp6CPm827Ex2cku6HO3qPVC2AGG0XPI52V5K1uOE3oV8943Lgg7QD8GDHntco6v1plV0Muy3A0h7A75OQg7QDcSCPm83dicbGQT9L6X2pcRdoB2JBbyY//3v/+P8Mf/9Nce7l+6ks3Se04T+oVHuw5F2AHWk2rIn+3ePH77iw//KKlBcpksgp7CUvsywg7QTOohr/48Z3f/0pUslt6TD3pqS+3LCDvAYpmFfF4WS+85TOhJLrUvI+wAMxmHvJbFYJl00HNYal9G2IGpGkHI5yW/9J5s0HNbal9G2IGpGFnI5yW99J7yhH4/x6X2ZYQdGKsRh7y2lfJrpycZ9HiObvavTXsRYQfGYgIhn3dj/9KVJM96T3VCH81S+zLCDuRqYiGfl2Sjkgt6fFnUrF9kfh3CDuRiwiGvXd6/dOWdrj/IqpIKelmWVchvJfCpDEbYgVQJ+Sm39i9dSWr4TG1CH+VGuHUIO5AKIV8ouQ1yyQQ9boTL+p7zLgg7MBQhX2o3pQ1yKU3ok9kItw5hB/oi5CtJpl1JBH2qG+HWIexAV4R8LclskBs86PFEuElvhFuHsANtEfKN3UrhBLkUJnQb4TYg7MC6hLw1SWyQGzToZVnujP1EuL4IO9CUkHeiOkFuZ8hPYOgJPdkzcXMl7MB5hLxzgzZtsKDH29SSPA93DIQdqAl5b64NeRvbkBO629R6IOwwXUI+iMHaNkjQy7K84Ta1fgk7TIeQD6q6jW2QvWFDTeh3Bvq4kyfsMF5CnoxBGtd70B0ikwZhh/EQ8uQMcthMr0F3iEx6hB3yJeRJ6/2wmb4n9NsOkUmTsEM+hDwLW7F5vekt6KbzPAg7pEvIs9PrlN7nhG46z4iwQzqEPFu9Tum9BL36DeV7f/cf3/rRt7/Tx4ejRcIOwxHyvP3ML3w+XP6P//pWXKHuXF8T+u2ffv8HW3/ytd8O3/vlLwVhz4+wQ3+EPG9VyH/xW78Tful//UHY+idf6m1K7zzo8frBy2vnP/3THwZhz5ewQ3eEPG/zIf/sr355/t/Sy5Tex4S+8Nq5sOdN2KE9Qp63C0Je62VK7zToZ6fzRYQ9b8IO6xPyvDUI+bzOp/SuJ/TdpjvbhT1vwg7NCXneVgx5bSs2sTNdB33l82yFPW/CDucT8rytGfJ5nZ7x3lnQ46vNrH1mu7DnTdjhhJDnrYWQ1y7HVxvtRJcTeiu/iQh73oSdKRPyvLUY8nmdnZjaSdD3L1251vYrqgl73oSdKRHyvHUU8tpOWZbXuvgCdTWhd3adQNjzJuyMmZDnreOQz+ukka0Hff/SlWoy7+S3j3nCnjdhZ0yEPG89hrx2rSzLVlexQ0cTeqe7+M4S9rwJOzkT8rwNEPJ5rbeyaPOdxYNkng/5qmrVA/S5r391iAeHFhz+8Cjc/eYH4fLPb4U7X3tr8C/pwWtvDP45cGLn448G/2rc/dYH4fAHR+HOb7yVTMRDDPmf/avfE/EGEunEUQjh9aIojtp6h20HvTra7n6b73Ndwk4bBD0tKQQ9NULeXIJdeLsoigdtvbO2g/687d3tmxJ2NiHoaRH0E0LeXMIdOCyK4vW23llrQd+/dKU60u79tt5f24SddQh6WgRdyFeRyfP+9aIoHrfxjtoM+vtdn1PbBmFnFYKelikHXciby+x5/nFRFNfbeEetBD3eqva8jffVF2GnCUFPyxSDLuTNZfy8Xm2OO9z0nbR121pnZ9N2xe1uQMrcftbcwLeftaGVhrY1oSe3GW5VJnYWMaGnZQoTuom8uRE9b7eyOW7joKe+GW5Vws48QU/LmIMu5M2N9Hl6481xbQQ9i81wqxJ2gqAnZ4xBF/LmRv68vPHmuI2CHk+G+/NN3kfqhH3aBD0tYwq6kDc3oefhz2xyctymm+Ky2wy3KpvngDbZ7NbcCDa7rWqjpm46oe9XvzRv8j5yY2KfFhN6WnKe0E3kzU34efagKIq1X6Vq7aDneO95m4R9GgQ9LTkGXcib87x6bO170jdZcr+1wd/NnqV44CKW1pub4NL6RdZu69oT+h//s3/x/P/95V9mfe95m+rfLH/mF/7WeP5RmNATk8uEbiJv7rO/uivip619T/paQS/Lsrpuvr/O34WcCHpavDgLE3G1KIqDVf+p6y65T3q5HQA6tFZj1w366A6SAYBErNXYlYNelmX1gbY86gDQia3Y2pWsM6HbvQAA3Vq5tesE3XI7AHSr2wk97m633A4A3dqKzW1s1Qn9Kx5AAOjFSs1dNeiW2wGgHys1t3HQ4+jvZDgA6MflVZbdV5nQTecA0K9rTT/aKkF3uxoA9KvxdfRGQS/Lcmtqr3sOAAnYiQ1equmEbrkdAIbRqMFNg/6mBxEABtGowSZ0AEhbOxO60+EAYFCNTo1rMqGbzgFgWEtb3CTorp8DwLCWtrhJ0Bvf1A4AdGJpiy8M+jovsA4AtG9Zk5dN6JbbASANFzZ5WdAttwNAGi5s8rKgO+4VANJwYZPPDXpZlqZzAEjIRW2+aEIXdABIy1pBtyEOANJybptN6ACQj9Um9CZnxgIA/Tuv0edN6KZzAEjTwkafF/QvehABIEkLG31e0C25A0CaVlpyF3QASNPCRhdn/4/9S1eqtfkPPIgAkKy3rr54+mT+k1s0oZvOASBtr7R6UdBtiAOAtL3SahM6AOSn0YQu6ACQtouDHjfEAQCJO9vssxP6ZQ8gAGThVLMFHQDydGHQvWQqAOThVLNN6ACQJ0vuADACi4NuhzsA5GW+3fMT+pbHEQCy8rLd80F3oAwA5OVlu+eD/gUPIgBk5WW754NuQxwA5OVluy25A0C+Fi652xQHAHk5vSnOLWsAkKe64YtePhUAyEwddNfPASBPxw2vg+76OQDk6bjhddC/6EEEgCwdN9yEDgB5OzWhCzoA5OlU0G2KA4A8ndoUBwBkrNi/dKUq+74HEQCydfUTrp8DQPa2LLkDwAh8woY4AMjejiV3AMifJXcAGANBB4ARqIL+pgcSALL2pgkdAEZA0AFgBAQdAEagCvplDyQAZO2yoANA/i5bcgeAERB0ABgBQQeAERB0ABgBQQeAERB0ABgBQQeAERB0ABgBQQeAERB0ABgBQQeAERB0ABgBQQeAERB0ABgBQQeAERB0ABgBQQeAERB0ABgBQQeAERB0ABgBQQeAEaiCfuiBBICsHQo6AOTv0JI7AIyAoAPACAg6AIxAFfQPPZAAkLUPTegAMAKCDgAjUAX9yAMJAFk7qoJ+4DEEgKwdWHIHgBGw5A4A+Tsqqn/C/qUrpQcTAPJ09cXTwpI7AIxAHXQb4wAgT8cNr4PuOjoA5Om44YIOAHk7FfTvejABIEvHDTehA0DeTk3oNsUBQJ5ObYoDADJW1J+6w2UAID/VoTLhzITuOjoA5OVlu+eD7jo6AOTlZbvng37oQQSArLxs93zQv+8xBICsvGy3JXcAyNfCJXeb4gAgLy/bXcx/2m5dA4B81LeshQUHy9gYBwB5ONVsQQeAPF0Y9A89qACQhVPNNqEDQJ4suQPACJxqdnH232OnOwCkb36Hezjn5VMdMAMAaXul1YIOAPlpFPTvemABIGmvtNqEDgD5eaXVr2yKq5RlaWMcVD8xr73hy5CQnY8/mvqXAI4VRfFKvxdN6MGUDgDJWthoQQeAvKwUdBvjACBNCxt9XtCfeBABIEkLG70w6EVRWHIHgASd1+jzJvRgSgeA5Jzb5ouC7qVUASAt57bZhA4A+Vh9Qi+KQtABICEXtfmiCT24Hx0AknFhk5cF3ZQOAGm4sMnLgm5jHACk4cImXxj0oigeexABYHjLmrxsQg+W3QFgcEtb3CTolt0BYFhLW9wk6JbdAWBYS1u8NOjxzNgjDyQADOKoyWusNJnQgykdAAbTqMFNg+46OgAMo1GDTegAkLb2JvSiKI4cAwsAvTuIDV6q6YRe+Y7HEQB69V7TD7ZK0C27A0C/Gh/u1jjoccv8oQcSAHpx2OR2tdoqE3owpQNAb1Zq7qpBb7yWDwBsZKXmrhR0p8YBQC8anQ43b9UJPVh2B4DOrdzadYLu9jUA6NbKrV056PEF1i27A0A3jmJrV7LOhB4suwNAZ9Zq7LpBf9fjCACdWKuxn1znL1U778qyrA6ZueyxnPnRt78TfvRtCxdN/PV/8PfC537zq+l/okCnfvLR/w5/9o3fC3/1f/7CFzr6xM/+7OHf/k//dq3XTlkr6FFVr9sb/P1RqEJefUP+9E9/OPUvxVJ1yKv/Anzqjb8TfvFbvxM+/ve/Hz7+d78f/urHwr7JJe1i3b9YlmU1nT9f9+/nTsibyznkB6+9kcBnQW3n4498LUaqirmwH3v96ounax2zvnbQwyzq+9XP2CbvIzdC3twYJnJBT4ugj9/Ew35w9cXTq+v+5U2W3EM8lm4SQRfy5iytA+v6a5/+uePnj9d+/Z9PMewbHa++6YS+FUL4803eR+qEvLkxhtyEnhYT+vRMbGL/zNUXT9c+52WjoIdZ1N8PIexu+n5SI+TNjXkiF/S0CPp0TSDsj6++eHp9k3fQRtCrmL+/6ftJhZA3N4WldUFPi6Az4rBfv/ri6Ub3Pm8c9DCL+vPc70kX8uamdI1c0NMi6NRGFvbDqy+evr7pO1n3pLizsn2d9Crk3/vlL4U/+dpvi/kSVcC3Hz88frPhDRhSvXnul/7nH4bPff2rx/87Y600tK0JPbt70k3kzU1517oJPS0mdM6T+cS+9r3n81oJeshoc5yQN+f2M0FPjaCzTIZh33gzXK3NoCe9OU7ImxPyE4KeFkGnqYzCvvFmuFprQQ+Jbo4T8uaE/FWCnhZBZ1WJh72VzXC1toNevVjL/Tbf57qEvDkhP5+gp0XQWVeiYX/76ounD9p6Z20HfStujttq8/2uQsibSzHkhz88Cne/+UG4/PNb4c7X3hr88xH0tKQQ9Lvf+iAc/uAo3PmNt8Llzw/2VMeaEgr7UdwMt/bJcGe1ddvasaIojjZ56bdNuP2suRRvP6tCfvO33g+vX/s34dF/2U/gM4LzVd+j1fdq9T1bfe+Sj4Rud3vcZsxD20GP7nbwPs8l5M0JObRL2POVQNhbb+Wmr7b2iqIoDsuyfBJCuNb2+55nab25lJfWRZwxqL6Pq7cbv3LVUnxmBnp1tydt3Hd+VutBj+52FXQhb07IoV/Cnq+ew97JSnYnQS+K4klZlgdtvla6kDcn5DAsYc9XD2E/uPri6ZMuvkBdXEOvvdvGO3GNvDnXyCEtrrHnq8Nr7K20cZHOgl4UxaPq+Xzdvy/kzQk5pE3Y89Vy2KuDZB519cXockIP61wnEPLmhBzyIuz5ainsnd4F1nXQH8eb55cS8uaEHPIm7PnaIOydn9PSadDjQTMXXi8Q8uaEHMZF2PO1RtjfbfsgmbO6ntArDxZN6ULenJDDuAl7vhqG/Si2sFOdB/3slC7kzQk5TIuw52tJ2DufzkNPE3rlwdF//YMjIW9GyGHahD1fr4R962/0Mp2HDk+KO6Wa0vcvXamm9Dt9fLxcORAGmOeAmnzVYf/cb3713bhS3blegh5Vv6HcGvKlVVMl5MBFhD1bvU3noccl9xCvH3R2Qk6OLK0Dq7AUn53epvPQ84QeTOkzJnJgEyb2LPQ6nYc+J/RgSjeRA60ysSet1+k89B30MIv6O5uc8Z4jIQe6JOzJOSyK4p2+P2jfS+616jzbhwN97N5YWgf6ZCk+GZ2e2X6e3if0MJvSN3olttSZyIEhmdgHdRhfbbR3Q03olZshhA+G/bq3y0QOpMTEPoibQ33gQSb0MJvSn4QQngz18dtkIgdSZmLvzZOiKAbr2pATeuXtEEK2tTGRAzkxsXfu7SE/+GATephN6QfV99iQn8M6TORAzkzsnXhUFMXBkJ/A0BN6iL/R7OZw2IyJHBgTE3trjoaezsPQE3rI5LAZEzkwZib2jfV+iMwigwc9JHzYjJADUyLsaxnkEJlFUlhyryVzG5uldWDKLMWvZLDb1M5KYkIPJ7exPR7yczCRA5wwsS/1eMjb1M5KaUIPcVPBtb43yJnIAc5nYl8oiY1w85KZ0MNsSj/sc4OciRygORP7KdVGuKT2fiUV9NDTBjkhB1ifsKezEW5eakvutU42yFlaB2jPhJfik9kINy+5CT2cbJBr7QQ5EzlAdyY2sT9KaSPcvFQn9NDGCXImcoD+TGBiT24j3LwkJ/RwcoLcWssaJnKA4Yx4Yr+Zwolw50k26GEW9cer3Jsu5ADpGFnYq3vOBz0rZZmUl9xrN5fdm25pHSBdI1iKX3vFuE9JT+hhydK7iRwgHxlP7EkvtdeSD3pYsPQu5AD5yizsyS+113JYcq/d/Lk3//61v/n2r29ZWgfIXwZL8VkstdeyCXq19F7+54+qL+z7CXw6Qg7QkoTDnsVSey2LJfdaXPYYdOnD0jpANxJbis9mqb2WVdCjm12f9b6IkAP0I4GwH+a01F7LLuhx+aO3L7SQAwxjwLBntdRey3FCD/Ec3QddfgwhB0hDz2G/m+pZ7ctkGfQwi3p1nu5B2+9XyAHS1EPYD1J8WdSmsg16dD3eVrAxIQfIQ0dhP4pNyVbWQS+K4nDTV74RcoA8tRz2t2NTspX7hF5F/dE6r50u5ADj0ELYH8WWZC37oEeNr6cLOcA4rRn2g5Rf43wVowj63K1s5z6CQg4wDSuE/SjXW9QWGcuEXkV94W9ZQg4wTQ3CfjO2YxRGE/Rwcj39+P50IQcgnB/2B7kd7brMqIIe4v3pv/WNPzwQcgDm1WGvGhHPMhmV0QW98o3/8N/eauv+dABG5Sg2YnRGGfTw7F4V81E+YABs5K3YiNEZZ9DDcdQPcny1HAA6czO2YZTGG/RwHPW1Dp0BYHQexSaM1riDHo6jXk3pWb5yDgCteBJbMGrjD/rM9S5emQ2A5B3k/qIrTU0j6LMNEBeeJAfA6BzF6+aTeO6fyoReb5Kz8x1gOt4a8ya4s6YT9GDnO8CEjHpH+yLTCnp4ufP9bgKfCQDduDv2He2LTC/o4Tjq77idDWCUHsXn+MmZZtDDy9vZRnUwP8DEPZ7C7WnnmW7QZ266nQ1gFCa/R2raQT85813UAfI1u4tpIrennWfqE/p81N2jDpCfIzGfEfQg6gCZEvM5gl47OXjGNwZA+o6mdnDMMoI+T9QBciDmCwj6WY6IBUidmC8g6Is4IhYgVZM70rUpQT/P7NhAUQdIx80pHunalKBfRNQBUiHmSwj6MqIOMDQxb0DQmxB1gKGIeUOC3pSoA/RNzFcg6KuYfWNddZ86QKeOjp9rxXwlgr4qh88AdMmhMWsS9HWIOkAXxHwDgr4uUQdok5hvSNA3MfvGe93rqQNsZPZcKuYbEfRNnbz0qm9EgNUdeAnUdgh6G06i/jj/fwxAbx6LeXs+OZZ/yOBm35DXw/bewxDCjYl/NQCWeRSe3XO2R4tM6G2bfYPeHdc/CqBVd8W8fYLehWf33nGqHMBCN+NzJC0T9K44VQ5gntPfOiboXTq5V90OeGDKDtxj3j1B79pJ1J+M+x8KsNATMe+HXe59qG9rswMemBY72XtkQu/T7BvbNzcwBTfFvF+C3jeb5YBxs/ltIII+BGfAA+PkTPYBCfpQquvqz+5Vk/qDaX4BgJF5cPyc5hjXwQj60J7dezteV/dDAORoduz17LmMAQl6CmbXmtyvDuSmvr/cC1MlQNBTcXK/uo0kQA4eub88Le5DT8ns2tPNsL33YQjhfghha+pfEiA51fPU23axp8eEnqKTW9v85guk5MAtaekS9FQ9u3cYd8F7KVYgBXfjLvZDj0aaBD11s5cZrK6t+yEChnAYr5V7ydPECXoOnt17Epfg7SQF+vQ4LrF7cakM2BSXi9mGuethe283hPDQhjmgQ0fxLHZDREZM6LmZ/YC9bloHOvI4Ht/qOSYzJvQcmdaB9pnKM2dCz5lpHWiHqXwETOi5M60D6zOVj4gJfSxOpnUHPgBNPDKVj4sJfUxOjo59L07rl6f+JQFecRincuVtrmgAAAOJSURBVLeijYygj9HsB/X1sL1XHQRxyzI8EJfX33VAzHhZch+z2Q+uA2mA+oAYMR8xE/rYzc5drjbNXbMMD5NjeX1CBH0qLMPDlFhenyBL7lMz+wG3Gx7Gq969LuYTI+hTVO2Gf3bvZry+bikOxuFJvE5+M97xwsRYcp+yZ/cOjl8W0fV1yJnr5BwTdOavr98IIdwRdshCFfK74dk9l884JuicmD0xPLJxDpJmwxsLuYbOq042zt2NTx7A8I7iz6QNbyxkQmex2aaad8L23oMQwm0TOwxmNpGH8MBmNy4i6FxM2GEoQs5KBJ1mhB36IuSsRdBZzemw79oVD605jNfIHws56xB01jN7wql3xd+IE/uOryaszO1ntMIudzZXPRE9u3f1+JAaJ89BU0+Of2ae3XtdzGmDCZ32zA6oeRK29y7Hpfhd19nhlKP4UqZ34yshQmsEnfbNnqhuhu29t0MI9XK86+xM2WHc6PbI9XG6Iuh0Z/bE9eD4bXuvmta/Eqd2mIpqGn8vPLv32CNO1wSdfsye0B7H5fgbMe6mdsbo8Djis2ncsjq9EXT6NXuCeyfe+mZqZ0xM4wxK0BnOydS+NTe1u/WNnBzMTeOujTMoQWd4p6+1V8vwtz776U/tWpInRZ/99KcO4zT+riV1UlJ4NEhVWZY7cYf8YLe/Hbz2hu+PhOx8/NFQn0x9u9m7RVEcpPi1AQfLkKzqibMoiptFUXwmhHA9nkxnWZO+1KchXq++B+P3opiTLBM62YmTe72ZrtNleRN6WnqY0Ovl9PfEm9y4hk524hNt9fZ2jPs1G+rYQL2x7YmIkzNBJ2tzcX9QluVWnNrfdOwsF6ivh39Y/bcoCpdxGAVL7oxWnN7rwF9b599pyT0tGyy5P5kLuCmcUTKhM1pz0/uxsizn4255ftwO6ogXReGgFyZB0JmM+MT+8sm9LMtrMe5rT/Ako57Aq+vgXsKXSRJ0Jis+8b988p/bYPfFOMGb4tNUr7x810Y2OCHoEJ1doq/sX7pSL8+L/DDm431g+obz2RQHK4qRvxzf3pz7M+s7jG8f1n+++uKpeMMKBB1aEkO/Faf4L8TI77h97qWjOG1Xwf5+/PORcEM7BB16EGMf5gL/xfjfrREt4x/EaB/FJfI64EG0oXuCDonYv3Rlfpo/O9m/eeaz7HKZv17+nvfh3J+P5vYaVBO2TWkwtBDC/wf3JTXwtm09TAAAAABJRU5ErkJggg==;fontFamily=Inter;fontSource=https%3A%2F%2Ffonts.googleapis.com%2Fcss%3Ffamily%3DInter;" parent="1" vertex="1">
          <mxGeometry x="507" y="896" width="24" height="24" as="geometry" />
        </mxCell>
        <mxCell id="2VHBlUvyJRlqlRp6QgVQ-68" value="" style="triangle;whiteSpace=wrap;html=1;fontSize=8;fontColor=#067302;strokeColor=none;fillColor=#252525;gradientColor=none;aspect=fixed;rotation=90;fontFamily=Inter;fontSource=https%3A%2F%2Ffonts.googleapis.com%2Fcss%3Ffamily%3DInter;" parent="1" vertex="1">
          <mxGeometry x="803" y="904" width="8" height="8" as="geometry" />
        </mxCell>
        <mxCell id="u8wmE40ec24LZ4FO259Z-1" value="" style="rounded=1;whiteSpace=wrap;html=1;fontFamily=Verdana;align=left;verticalAlign=middle;fontSize=12;fillColor=#E1E1E1;strokeColor=none;fontStyle=0;fontColor=#1E2022;arcSize=50;" parent="1" vertex="1">
          <mxGeometry x="129" y="1042" width="328" height="8" as="geometry" />
        </mxCell>
        <mxCell id="u8wmE40ec24LZ4FO259Z-2" value="" style="rounded=1;whiteSpace=wrap;html=1;fillColor=#018701;fontColor=#1E2022;arcSize=50;strokeColor=none;" parent="1" vertex="1">
          <mxGeometry x="129" y="1042" width="248" height="8" as="geometry" />
        </mxCell>
        <mxCell id="u8wmE40ec24LZ4FO259Z-3" value="" style="rounded=1;whiteSpace=wrap;html=1;fontFamily=Verdana;align=left;verticalAlign=middle;fontSize=12;fillColor=#E1E1E1;strokeColor=none;fontStyle=0;fontColor=#1E2022;arcSize=50;" parent="1" vertex="1">
          <mxGeometry x="129" y="1024" width="328" height="8" as="geometry" />
        </mxCell>
        <mxCell id="u8wmE40ec24LZ4FO259Z-4" value="" style="rounded=1;whiteSpace=wrap;html=1;fillColor=#00539F;fontColor=#1E2022;arcSize=50;strokeColor=none;" parent="1" vertex="1">
          <mxGeometry x="129" y="1024" width="328" height="8" as="geometry" />
        </mxCell>
        <mxCell id="u8wmE40ec24LZ4FO259Z-5" value="" style="rounded=1;whiteSpace=wrap;html=1;fontFamily=Verdana;align=left;verticalAlign=middle;fontSize=12;fillColor=#E1E1E1;strokeColor=none;fontStyle=0;fontColor=#1E2022;arcSize=50;" parent="1" vertex="1">
          <mxGeometry x="129" y="1076" width="328" height="8" as="geometry" />
        </mxCell>
        <mxCell id="u8wmE40ec24LZ4FO259Z-6" value="" style="rounded=1;whiteSpace=wrap;html=1;fillColor=#CC0122;fontColor=#1E2022;arcSize=50;strokeColor=none;" parent="1" vertex="1">
          <mxGeometry x="129" y="1076" width="88" height="8" as="geometry" />
        </mxCell>
        <mxCell id="u8wmE40ec24LZ4FO259Z-7" value="" style="rounded=1;whiteSpace=wrap;html=1;fontFamily=Verdana;align=left;verticalAlign=middle;fontSize=12;fillColor=#E1E1E1;strokeColor=none;fontStyle=0;fontColor=#1E2022;arcSize=50;" parent="1" vertex="1">
          <mxGeometry x="129" y="1058" width="328" height="8" as="geometry" />
        </mxCell>
        <mxCell id="u8wmE40ec24LZ4FO259Z-8" value="" style="rounded=1;whiteSpace=wrap;html=1;fillColor=#FF9901;fontColor=#1E2022;arcSize=50;strokeColor=none;" parent="1" vertex="1">
          <mxGeometry x="129" y="1058" width="168" height="8" as="geometry" />
        </mxCell>
        <mxCell id="u8wmE40ec24LZ4FO259Z-9" value="" style="rounded=1;whiteSpace=wrap;html=1;fontFamily=Verdana;align=left;verticalAlign=middle;fontSize=12;fillColor=#191919;strokeColor=none;fontStyle=0;fontColor=#1E2022;arcSize=50;" parent="1" vertex="1">
          <mxGeometry x="475" y="1042" width="328" height="8" as="geometry" />
        </mxCell>
        <mxCell id="u8wmE40ec24LZ4FO259Z-10" value="" style="rounded=1;whiteSpace=wrap;html=1;fillColor=#018701;fontColor=#1E2022;arcSize=50;strokeColor=none;" parent="1" vertex="1">
          <mxGeometry x="475" y="1042" width="248" height="8" as="geometry" />
        </mxCell>
        <mxCell id="u8wmE40ec24LZ4FO259Z-11" value="" style="rounded=1;whiteSpace=wrap;html=1;fontFamily=Verdana;align=left;verticalAlign=middle;fontSize=12;fillColor=#E1E1E1;strokeColor=none;fontStyle=0;fontColor=#1E2022;arcSize=50;" parent="1" vertex="1">
          <mxGeometry x="475" y="1024" width="328" height="8" as="geometry" />
        </mxCell>
        <mxCell id="u8wmE40ec24LZ4FO259Z-12" value="" style="rounded=1;whiteSpace=wrap;html=1;fillColor=#00539F;fontColor=#1E2022;arcSize=50;strokeColor=none;" parent="1" vertex="1">
          <mxGeometry x="475" y="1024" width="328" height="8" as="geometry" />
        </mxCell>
        <mxCell id="u8wmE40ec24LZ4FO259Z-13" value="" style="rounded=1;whiteSpace=wrap;html=1;fontFamily=Verdana;align=left;verticalAlign=middle;fontSize=12;fillColor=#191919;strokeColor=none;fontStyle=0;fontColor=#1E2022;arcSize=50;" parent="1" vertex="1">
          <mxGeometry x="475" y="1076" width="328" height="8" as="geometry" />
        </mxCell>
        <mxCell id="u8wmE40ec24LZ4FO259Z-14" value="" style="rounded=1;whiteSpace=wrap;html=1;fillColor=#CC0122;fontColor=#1E2022;arcSize=50;strokeColor=none;" parent="1" vertex="1">
          <mxGeometry x="475" y="1076" width="88" height="8" as="geometry" />
        </mxCell>
        <mxCell id="u8wmE40ec24LZ4FO259Z-15" value="" style="rounded=1;whiteSpace=wrap;html=1;fontFamily=Verdana;align=left;verticalAlign=middle;fontSize=12;fillColor=#191919;strokeColor=none;fontStyle=0;fontColor=#1E2022;arcSize=50;" parent="1" vertex="1">
          <mxGeometry x="475" y="1058" width="328" height="8" as="geometry" />
        </mxCell>
        <mxCell id="u8wmE40ec24LZ4FO259Z-16" value="" style="rounded=1;whiteSpace=wrap;html=1;fillColor=#FF9901;fontColor=#1E2022;arcSize=50;strokeColor=none;" parent="1" vertex="1">
          <mxGeometry x="475" y="1058" width="168" height="8" as="geometry" />
        </mxCell>
      </root>
    </mxGraphModel>
  </diagram>
</mxfile>
